<?xml version="1.0" standalone="no"?>
<!DOCTYPE svg PUBLIC "-//W3C//DTD SVG 1.1//EN" "http://www.w3.org/Graphics/SVG/1.1/DTD/svg11.dtd">
<svg xmlns="http://www.w3.org/2000/svg">
<defs >
<font id="Almendra" horiz-adv-x="428" ><font-face
    font-family="Almendra"
    units-per-em="1000"
    panose-1="2 0 0 0 0 0 0 0 0 0"
    ascent="951"
    descent="-345"
    alphabetic="0" />
<glyph unicode=" " glyph-name="space" horiz-adv-x="165" />
<glyph unicode="!" glyph-name="exclam" horiz-adv-x="205" d="M154 53Q145 38 127 16T94 -15Q70 2 46 53Q53 66 72 83T105 108Q130 92 154 53ZM186 696Q189 696 192 696Q204 684 219 656Q169 505 120 182L94 180L123 679Q159 696 186 696Z" />
<glyph unicode="&quot;" glyph-name="quotedbl" horiz-adv-x="310" d="M138 666Q141 666 144 666L155 653Q115 576 82 434L59 432L72 649Q108 666 138 666ZM268 666Q271 666 274 666L285 653Q245 576 212 434L189 432L202 649Q238 666 268 666Z" />
<glyph unicode="#" glyph-name="numbersign" horiz-adv-x="572" d="M405 371Q472 370 496 370T528 370L535 364L508 316L395 319L371 188Q435 187 458 187T489 187L495 182L469 133L361 136L318 -92H313Q290 -87 274 -71Q300 34 319 137L211 140L168 -92H163Q140
-87 124 -71Q154 50 170 141L45 144L37 151L64 203L109 199Q127 197 180 195L205 324L83 327L76 333L103 386L148 382Q164 380 215 378L256 587Q275 587 300 592L304 589Q277 486 256 376Q289 374 365 372L406 587Q425 587 450 592L454 589Q428 489 405 371ZM221
193Q253 191 329 189L354 320L246 323L221 193Z" />
<glyph unicode="$" glyph-name="dollar" horiz-adv-x="355" d="M96 199Q88 175 88 153T109 102T157 53L173 255Q98 295 79 314T59 355Q59 405 102 450T201 519L207 588Q223 590 234 594L238 591Q233 568 228 516Q271 503 300 503T349 519L359 505Q341 487 331
478T314 460Q302 448 285 424L254 438L221 450L211 319Q248 300 265 291T300 263T319 225Q319 174 275 109T178 -4L174 -91L169 -92Q153 -87 143 -77L149 -15V-10Q116 3 84 31T30 92L10 121Q59 166 82 206L96 199ZM257 173Q257 206 197 242L184 50L183 40Q202 55
229 103T257 173ZM195 458L168 464Q152 459 134 440T115 406Q115 370 186 332L195 457V458Z" />
<glyph unicode="%" glyph-name="percent" horiz-adv-x="800" d="M235 570Q256 570 341 555T492 540T584 578L591 588Q629 590 656 598L659 595Q581 494 499 378L161 -100H156Q131 -88 119 -68Q240 83 253 102L447 376Q530 495 551 527L547 528Q522 503 470 503T302
539L299 536Q347 483 354 407Q341 319 300 273T217 227T140 273T98 389Q112 472 155 521T235 570ZM460 230T503 279T585 328T659 279T702 165Q689 77 648 31T565 -15T488 31T446 147Q460 230 503 279ZM547 281T531 233T514 142T527 64T566 16Q600 27 617 75T634
166Q634 270 582 297Q547 281 531 233ZM199 523T183 475T166 384T179 306T218 258Q252 269 269 317T286 408Q286 512 234 539Q199 523 183 475Z" />
<glyph unicode="&amp;" glyph-name="ampersand" horiz-adv-x="685" d="M48 286Q48 494 205 585L211 584Q249 510 296 442Q383 552 383 622Q383 628 381 652L385 657Q451 657 493 666Q455 555 345 432Q260 337 129 215Q152 126 201 86T340 45Q386 45 415 61Q448
94 467 148T486 251T477 322Q396 320 354 289Q347 275 347 245T357 204L356 197Q331 182 306 155Q294 156 287 165T279 186Q279 243 332 301T448 382Q553 372 582 372Q665 372 709 405Q716 419 716 449T706 490L707 497Q732 512 757 539Q769 538 776 529T784 508Q784
451 731 393T615 312L551 318Q550 197 494 110T328 -15Q189 -15 119 63T48 286ZM141 492T127 439T113 336T121 250Q194 323 242 377Q208 431 168 515Q141 492 127 439Z" />
<glyph unicode="&apos;" glyph-name="quotesingle" horiz-adv-x="180" d="M138 666Q141 666 144 666L155 653Q115 576 82 434L59 432L72 649Q108 666 138 666Z" />
<glyph unicode="(" glyph-name="parenleft" horiz-adv-x="297" d="M304 701Q131 485 131 199Q131 105 154 -3T240 -205L229 -215Q141 -135 100 -18T59 211Q59 374 126 502T294 711L304 701Z" />
<glyph unicode=")" glyph-name="parenright" horiz-adv-x="299" d="M168 320Q168 534 57 701L67 711Q157 630 198 524T240 310Q240 146 171 6T2 -215L-7 -205Q67 -112 112 12Q168 165 168 320Z" />
<glyph unicode="*" glyph-name="asterisk" horiz-adv-x="371" d="M210 672L236 678L238 676Q206 627 196 564Q249 603 276 651H279Q282 646 285 625Q310 630 317 630T326 629Q326 623 300 594L316 574L315 572Q312 572 308 572Q262 572 202 547Q255 522 305 522Q308
522 312 522L313 520L293 500Q316 470 316 465Q315 464 308 464T274 469Q266 445 265 443H262Q241 490 194 530Q196 465 220 418L219 416L194 422Q177 385 173 383Q169 385 159 422L134 416L132 418Q163 468 174 530Q124 493 93 443H90L84 469Q59 464 52 464T43
465Q43 467 69 500L53 520L54 522Q58 522 61 522Q111 522 167 547Q109 572 61 572Q59 572 57 572V574L76 594Q74 597 68 605Q53 623 53 629Q54 630 61 630T95 625Q103 650 104 651H107Q130 602 176 564Q172 631 149 676L151 678L175 672Q192 708 196 711Q200 709
210 672Z" />
<glyph unicode="+" glyph-name="plus" horiz-adv-x="550" d="M299 222Q299 95 308 0L262 -9L252 -2V222H66L58 229L67 280Q189 274 252 273V476L299 485L304 479Q299 347 299 273V272Q336 271 396 271T495 274L501 268L492 222H299Z" />
<glyph unicode="," glyph-name="comma" horiz-adv-x="205" d="M159 53Q150 0 111 -54T23 -139L15 -129Q76 -68 87 0Q62 25 50 53Q59 67 78 84T111 108Q122 101 137 84T159 53Z" />
<glyph unicode="-" glyph-name="hyphen" horiz-adv-x="286" d="M80 288Q168 288 252 298L260 293L254 251L37 236L28 242L34 288H80Z" />
<glyph unicode="." glyph-name="period" horiz-adv-x="200" d="M154 53Q145 38 127 16T94 -15Q70 2 46 53Q53 66 72 83T105 108Q130 92 154 53Z" />
<glyph unicode="/" glyph-name="slash" horiz-adv-x="394" d="M50 -41H45Q22 -31 7 -11Q56 83 99 178L234 477Q288 597 327 698Q356 700 383 706L387 703Q361 654 289 491L50 -41Z" />
<glyph unicode="0" glyph-name="zero" horiz-adv-x="417" d="M168 436T143 359T118 215T137 93T197 17Q248 34 273 108T299 247T279 373T219 453Q168 436 143 359ZM52 345T108 415T221 485T327 415T385 248Q365 124 309 55T195 -15T90 55T32 221Q52 345 108 415Z" />
<glyph unicode="1" glyph-name="one" horiz-adv-x="264" d="M218 -13Q170 0 115 0T7 -8L5 7Q40 23 83 33Q101 131 101 352Q101 402 97 438Q52 451 23 467L26 482Q83 470 140 470T237 479L241 465Q207 449 192 425T170 337T163 178T169 38Q193 15 224 3L218 -13Z" />
<glyph unicode="2" glyph-name="two" horiz-adv-x="355" d="M225 349Q225 423 164 423Q137 423 115 412Q108 400 108 381T118 352L117 345Q94 329 76 305Q64 306 57 314T50 334Q50 386 93 428T195 485Q250 485 280 439T311 330Q284 281 203 203T93 81Q150 69 197
69T264 78Q284 123 299 143L313 136Q293 86 293 50T305 -5L297 -17Q204 8 80 8Q38 8 16 -7L7 -1Q25 46 64 96T137 182T198 263T225 349Z" />
<glyph unicode="3" glyph-name="three" horiz-adv-x="371" d="M261 100Q261 215 133 215Q114 215 100 212L93 228Q144 250 190 295T263 390Q195 405 151 405T97 400Q76 354 61 333L47 340Q67 390 67 428T55 486L66 498Q114 466 247 466Q302 466 338 470L343 454Q292
354 197 267V263Q268 258 299 232T331 141T271 2T146 -115Q111 -106 74 -78T13 -16L-7 11Q41 55 70 97L84 90Q76 69 76 46T107 -12T170 -57Q209 -32 235 11T261 100Z" />
<glyph unicode="4" glyph-name="four" horiz-adv-x="412" d="M288 59Q288 -17 294 -60Q320 -82 350 -93L345 -109Q302 -100 247 -100T134 -112L131 -97Q164 -81 208 -68Q219 4 221 59H-10L-14 73Q124 230 234 460Q285 468 320 485L328 481Q314 438 309 415T297
313T289 107Q344 107 386 125L391 119Q379 89 374 53Q330 59 288 59ZM224 379Q155 213 85 116Q148 109 222 108L231 379H224Z" />
<glyph unicode="5" glyph-name="five" horiz-adv-x="384" d="M83 375Q84 392 84 421T75 473L84 479Q106 464 162 464T311 489L319 477Q307 458 307 422T327 336L313 329Q298 349 278 394Q259 403 219 403T123 391L106 252L109 251L117 260Q158 270 208 270Q352
270 352 140Q352 77 292 2T167 -115Q132 -106 95 -78T34 -16L14 11Q62 55 91 97L105 90Q97 69 97 46T128 -12T191 -57Q230 -32 256 11T282 100Q282 212 151 212Q116 212 84 205L74 210L83 375Z" />
<glyph unicode="6" glyph-name="six" horiz-adv-x="377" d="M103 193Q103 125 121 85T185 45T252 65Q267 99 267 160T247 261T167 300Q152 300 137 297V304Q164 323 194 350Q281 350 313 303T345 156Q325 97 277 49T169 -15Q93 -15 63 35T32 176Q32 301 111 415T309
585L321 568Q223 501 163 402T103 193Z" />
<glyph unicode="7" glyph-name="seven" horiz-adv-x="345" d="M252 387Q195 399 148 399T81 390Q61 345 46 325L32 332Q52 382 52 418T40 473L48 485Q141 460 265 460Q307 460 329 475L338 469Q241 314 197 187T149 -68Q193 -81 226 -97L223 -112Q166 -100 111
-100T12 -109L7 -93Q37 -82 63 -60Q76 53 118 146T252 387Z" />
<glyph unicode="8" glyph-name="eight" horiz-adv-x="382" d="M111 -15T75 24T38 120T70 225T150 303Q108 335 85 370T61 457Q87 498 134 536T224 585Q277 585 303 562T329 493T298 405T225 335Q318 273 335 224Q344 198 344 166Q320 93 282 52T174 -15Q111 -15
75 24ZM258 65Q276 103 276 136T269 189T241 229T211 257T170 288Q140 265 122 228T103 149T128 76T195 45T258 65ZM137 505Q129 487 129 458Q129 400 205 349Q265 404 265 459Q265 523 201 523Q161 523 137 505Z" />
<glyph unicode="9" glyph-name="nine" horiz-adv-x="377" d="M274 277Q274 345 256 385T192 425T125 405Q110 370 110 309T130 209T210 170Q225 170 240 173V166Q213 147 183 120Q96 120 64 167T32 314Q52 373 100 421T208 485Q284 485 314 435T345 294Q345 169
266 55T68 -115L56 -98Q154 -31 214 68T274 277Z" />
<glyph unicode=":" glyph-name="colon" horiz-adv-x="219" d="M154 53Q145 38 127 16T94 -15Q70 2 46 53Q53 66 72 83T105 108Q130 92 154 53ZM173 430Q164 415 146 393T113 362Q89 379 65 430Q72 443 91 460T124 485Q149 469 173 430Z" />
<glyph unicode=";" glyph-name="semicolon" horiz-adv-x="215" d="M159 53Q150 0 111 -54T23 -139L15 -129Q76 -68 87 0Q62 25 50 53Q59 67 78 84T111 108Q122 101 137 84T159 53ZM169 430Q160 415 142 393T109 362Q85 379 61 430Q68 443 87 460T120 485Q145 469
169 430Z" />
<glyph unicode="&lt;" glyph-name="less" horiz-adv-x="550" d="M472 55Q260 160 52 222L66 286Q122 303 249 351T474 449L498 403L493 393L134 254V250L493 112L498 102L472 55Z" />
<glyph unicode="=" glyph-name="equal" horiz-adv-x="550" d="M62 203Q232 194 341 194T490 197L496 191L487 145H61L53 152L62 203ZM62 357Q232 348 341 348T490 351L496 345L487 299H61L53 306L62 357Z" />
<glyph unicode="&gt;" glyph-name="greater" horiz-adv-x="550" d="M498 222Q290 160 78 55L52 102L57 112L416 250V254L57 393L52 403L76 449Q174 399 301 351T484 286L498 222Z" />
<glyph unicode="?" glyph-name="question" horiz-adv-x="253" d="M146 390T184 453T222 575T159 634Q128 634 105 623Q93 606 93 587T100 561L98 554Q70 536 52 514Q30 514 30 536Q30 592 77 633T190 696Q257 696 282 663T307 557Q280 502 228 441Q212 422 208
416Q176 378 160 362Q134 249 118 182L92 180L93 338Q146 390 184 453ZM157 53Q148 38 130 16T97 -15Q73 2 49 53Q56 66 75 83T108 108Q133 92 157 53Z" />
<glyph unicode="@" glyph-name="at" horiz-adv-x="832" d="M252 143Q252 251 299 349T434 485Q484 485 538 450Q554 489 574 517L588 513Q556 428 556 258T573 31Q649 73 688 169T728 363Q728 616 463 616Q358 616 285 570Q203 496 155 367T106 119T168 -70T344
-140Q406 -140 464 -118L470 -131Q409 -173 332 -190Q192 -190 115 -116T38 99T85 360T229 561T465 666Q616 666 705 600T794 394T727 142T537 -15Q507 -4 497 31T487 167Q492 208 501 241L491 242Q473 164 433 92T336 -15Q294 -8 273 40T252 143ZM323 174Q323
141 331 108T360 67Q409 102 452 211T495 388Q460 423 409 423Q382 423 368 409Q323 315 323 174Z" />
<glyph unicode="A" glyph-name="A" horiz-adv-x="524" d="M343 226Q307 232 271 232T202 232T142 226Q116 128 116 61Q116 34 123 -1Q54 -1 6 -15L-1 -7L221 621Q170 629 128 648L130 660Q193 651 295 651T441 659L447 654Q433 595 423 458T413 190T424 0Q362
-4 322 -15L316 -10Q332 64 343 226ZM156 276Q182 269 247 269T346 277Q351 385 351 463T345 612Q333 615 313 615T278 612Q255 582 230 503L156 276Z" />
<glyph unicode="B" glyph-name="B" horiz-adv-x="502" d="M278 662Q344 662 385 633T427 544Q427 426 299 373V369Q374 369 417 337T460 237Q460 154 390 82T230 -15L205 -7Q148 11 120 11T72 7L66 20Q86 41 93 99Q111 267 111 416T103 620Q45 625 7 639L8 651Q68
651 158 656T278 662ZM261 625Q228 625 200 614Q173 443 173 192Q173 126 177 70Q220 52 265 52T350 85Q376 134 376 205T336 314T214 352L218 382Q280 386 308 407Q343 446 343 514Q343 625 261 625Z" />
<glyph unicode="C" glyph-name="C" horiz-adv-x="425" d="M38 234Q38 515 252 666Q297 651 352 651T426 656L432 645Q375 591 375 471H363Q348 519 344 567L319 578Q271 599 214 599Q171 533 146 444T120 262T153 110T273 50Q306 72 325 115T345 203Q345 214 342
227L347 232Q394 234 424 243Q404 160 354 89T233 -15Q137 -15 88 55T38 234Z" />
<glyph unicode="D" glyph-name="D" horiz-adv-x="529" d="M278 662Q394 662 442 591T491 376T428 127T230 -15L205 -7Q148 11 120 11T72 7L66 20Q86 41 93 99Q111 267 111 416T103 620Q45 625 7 639L8 651Q68 651 158 656T278 662ZM257 52Q319 52 355 85Q382 132
397 202T412 334Q412 625 265 625Q231 625 200 614Q173 443 173 192Q173 126 177 70Q220 52 257 52Z" />
<glyph unicode="E" glyph-name="E" horiz-adv-x="444" d="M371 560Q320 598 268 598T178 573Q167 554 167 524Q167 451 215 411T343 364L337 335Q242 335 184 298T125 180Q125 117 158 82T247 46T337 67Q349 91 349 117T339 155L340 162Q365 177 390 204Q402 203
409 194T417 173Q417 104 363 55T231 -15Q149 -15 96 34T42 161T99 290T240 350V354Q174 364 128 405T82 506Q153 626 294 666Q373 666 426 643Q399 610 378 560H371Z" />
<glyph unicode="F" glyph-name="F" horiz-adv-x="433" d="M175 374Q200 368 252 368T355 385L360 379Q349 349 345 317Q275 327 231 327T173 324Q170 254 170 153T181 0Q125 -3 79 -15L73 -10Q87 49 97 190T108 449T100 621Q49 629 7 648L9 660Q72 651 226 651T434
663L440 652Q397 611 393 497H381Q366 545 362 593Q316 614 254 614Q225 614 197 609Q182 521 175 374Z" />
<glyph unicode="G" glyph-name="G" horiz-adv-x="478" d="M321 61V71Q304 50 269 22T212 -15Q129 -5 84 61T38 220Q38 355 93 475T252 666Q297 651 352 651T426 656L432 645Q375 591 375 471H363Q348 519 344 567L319 578Q271 599 214 599Q171 533 146 444T120
274Q120 91 237 59Q290 70 322 105V181Q322 220 317 248Q272 261 226 284L228 295Q264 289 295 289Q366 289 409 321L419 314Q407 288 404 256Q387 113 385 -49Q356 -102 290 -151T168 -200Q153 -200 143 -192T133 -170Q162 -148 182 -119L189 -118Q211 -135 240
-135T280 -129Q321 -74 321 61Z" />
<glyph unicode="H" glyph-name="H" horiz-adv-x="617" d="M435 381L436 457Q436 598 425 649Q481 652 527 664L533 659Q517 587 508 447T498 179T509 0Q453 -3 407 -15L401 -10Q426 105 433 328Q373 335 305 335T176 328Q173 269 173 160T184 0Q128 -3 82 -15L76
-10Q90 49 100 190T111 448T103 620Q45 625 7 639L8 651Q128 651 202 664L208 659Q189 573 178 382Q239 372 309 372T435 381Z" />
<glyph unicode="I" glyph-name="I" horiz-adv-x="292" d="M192 587T183 447T173 179T184 0Q128 -3 82 -15L76 -10Q90 49 100 190T111 448T103 620Q45 625 7 639L8 651Q128 651 202 664L208 659Q192 587 183 447Z" />
<glyph unicode="J" glyph-name="J" horiz-adv-x="292" d="M100 154Q111 361 111 463T103 620Q45 625 7 639L8 651Q128 651 202 664L208 659Q192 587 183 447T173 198T182 13Q157 -41 99 -94T-21 -180L-32 -165Q41 -104 67 -32T100 154Z" />
<glyph unicode="K" glyph-name="K" horiz-adv-x="526" d="M173 192Q173 51 184 0Q128 -3 82 -15L76 -10Q90 49 100 190T111 448T103 620Q45 625 7 639L8 651Q128 651 202 664L208 659Q183 549 175 306L282 447Q363 554 363 616Q363 622 361 646L365 651Q431 651
473 660Q432 540 294 395Q329 324 398 197T519 0Q452 -4 410 -14L403 -11Q393 38 348 136T244 340L173 257V192Z" />
<glyph unicode="L" glyph-name="L" horiz-adv-x="404" d="M192 587T183 447T173 206T178 47Q203 41 275 41T398 58L403 52Q392 22 388 -10Q318 0 234 0T82 -15L76 -10Q90 49 100 190T111 448T103 620Q45 625 7 639L8 651Q128 651 202 664L208 659Q192 587 183 447Z" />
<glyph unicode="M" glyph-name="M" horiz-adv-x="705" d="M253 614Q253 542 327 307L358 209L365 211Q365 236 382 292L477 596Q483 615 483 628T480 647L483 654Q502 651 531 651T608 665L615 660Q593 544 593 316T614 0Q564 -3 512 -15L505 -10Q528 113 528
281T517 543H513Q417 275 396 182Q389 151 387 122Q349 110 300 79L288 87Q290 109 290 120Q290 217 190 516L186 515Q132 188 130 0Q81 -1 27 -14L21 -9Q54 90 99 304T153 620Q95 625 57 639L58 651Q179 651 253 664L259 659Q253 638 253 614Z" />
<glyph unicode="N" glyph-name="N" horiz-adv-x="612" d="M517 600T506 467T495 211T510 0Q466 -4 435 -13L428 -10Q395 94 219 420Q192 471 163 515L159 513Q159 334 168 185T185 0Q133 -3 86 -15L80 -10Q94 49 104 188T114 442T103 620Q45 625 7 639L8 651Q125
651 199 664Q224 556 405 229L449 149L452 150Q452 328 443 471T426 651Q480 654 525 666L531 661Q517 600 506 467Z" />
<glyph unicode="O" glyph-name="O" horiz-adv-x="514" d="M394 396Q394 596 265 596Q227 596 200 580Q162 512 141 425T120 271T132 162T174 86T245 54T312 71Q350 125 372 221T394 396ZM138 -15T88 57T38 228T64 411T147 564T282 666Q476 666 476 413Q476 277
412 155T233 -15Q138 -15 88 57Z" />
<glyph unicode="P" glyph-name="P" horiz-adv-x="471" d="M371 662T414 629T457 509T391 367T225 312L228 342Q373 342 373 483T271 625Q235 625 200 614Q173 443 173 192Q173 51 184 0Q128 -3 82 -15L76 -10Q90 49 100 190T111 448T103 620Q45 625 7 639L8 651Q66
651 159 656T288 662Q371 662 414 629Z" />
<glyph unicode="Q" glyph-name="Q" horiz-adv-x="514" d="M117 4T78 73T38 234T64 411T147 564T282 666Q476 666 476 413Q476 286 420 170T262 -1Q295 -6 356 -43T478 -114T573 -148Q594 -148 608 -123T623 -73L627 -66Q660 -66 692 -56Q704 -65 704 -78Q704 -109
655 -139T548 -184T453 -200Q297 -56 200 -56Q140 -56 93 -90L76 -74Q98 -53 133 -36T198 -12Q117 4 78 73ZM394 396Q394 596 265 596Q227 596 200 580Q162 512 141 425T120 271T132 162T174 86T245 54T312 71Q350 125 372 221T394 396Z" />
<glyph unicode="R" glyph-name="R" horiz-adv-x="526" d="M373 498Q373 625 271 625Q235 625 200 614Q173 443 173 192Q173 51 184 0Q128 -3 82 -15L76 -10Q90 49 100 190T111 448T103 620Q45 625 7 639L8 651Q66 651 159 656T288 662Q371 662 414 632T457 530T420
411T320 341Q372 238 435 131T519 0Q452 -4 410 -14L403 -11Q381 93 252 327Q243 326 225 326L228 356Q373 356 373 498Z" />
<glyph unicode="S" glyph-name="S" d="M218 430Q254 409 291 389T353 342T379 289Q379 219 322 128T198 -15Q156 -5 111 28T38 98L11 135Q69 190 103 244L115 238Q103 212 103 179T141 109T224 57Q248 73 279 137T311 230T273 290T189 343T105 399T66 465Q66 518
119 578T231 666Q276 651 332 651T408 656L414 645Q357 591 357 471H345Q330 519 326 567L306 575Q258 594 200 594Q130 561 130 520T218 430Z" />
<glyph unicode="T" glyph-name="T" horiz-adv-x="441" d="M163 665T252 656T375 647T421 651Q463 693 489 714L500 708Q454 649 443 571L420 578Q360 593 277 600Q252 431 252 241T263 0Q207 -3 161 -15L155 -10Q171 62 180 202T190 439T184 605Q178 605 173 605Q83
605 51 573Q44 559 44 529T54 488L53 481Q28 466 3 439Q-9 440 -16 449T-24 470Q-24 527 29 585T145 666Q163 665 252 656Z" />
<glyph unicode="U" glyph-name="U" horiz-adv-x="594" d="M96 205Q96 205 107 457Q107 566 99 620Q46 625 7 639L8 651Q128 651 202 664L208 659Q193 594 183 482T172 305T172 223T175 178T184 135T201 101Q220 67 268 59Q343 109 404 208Q413 340 413 469T402
649Q458 652 504 664L510 659Q494 587 485 447T475 179T486 0Q430 -3 384 -15L378 -10Q389 42 399 146L396 147Q333 36 243 -15Q160 -7 128 49T96 205Z" />
<glyph unicode="V" glyph-name="V" horiz-adv-x="506" d="M385 514Q385 600 354 628V635Q400 661 427 690Q468 655 468 554Q468 295 263 -13L258 -15L231 1Q136 57 88 57Q78 57 66 55L61 69Q88 91 93 144Q107 315 107 440T99 620Q46 625 7 639L8 651Q128 651 202
664L208 659Q173 504 169 192Q169 148 170 122L171 121Q202 84 270 63Q385 285 385 514Z" />
<glyph unicode="W" glyph-name="W" horiz-adv-x="737" d="M699 559Q699 283 494 -13L489 -15Q391 26 332 103Q298 39 263 -13L258 -15L231 1Q136 57 88 57Q78 57 66 55L61 69Q88 91 93 144Q107 315 107 440T99 620Q46 625 7 639L8 651Q128 651 202 664L208 659Q173
504 169 192Q169 148 170 122L171 121Q202 84 270 63Q371 286 371 514Q371 626 320 644L321 656Q398 651 530 651T744 695L751 685Q737 668 689 637Q699 604 699 559ZM457 554Q457 396 368 176Q387 141 425 109T501 63Q616 282 616 514Q616 573 598 601T536 629T452
620Q457 588 457 554Z" />
<glyph unicode="X" glyph-name="X" horiz-adv-x="508" d="M383 615Q383 635 378 649L382 654Q445 656 486 666Q474 612 439 549T379 453T299 351Q399 140 486 0Q427 -2 373 -14L366 -11Q328 112 244 292L198 221Q132 118 132 36Q132 16 137 2L133 -3Q70 -5 29
-15Q58 115 227 327Q220 342 181 420Q105 566 72 620Q14 625 -24 639L-23 651Q101 651 175 664Q197 567 282 388L313 437Q383 552 383 615Z" />
<glyph unicode="Y" glyph-name="Y" horiz-adv-x="489" d="M285 314Q283 269 283 160T294 0Q238 -3 192 -15L186 -10Q207 80 217 294Q205 322 161 419Q84 582 59 622Q-2 628 -37 642L-36 654Q-21 654 -6 654Q95 654 162 666Q189 548 273 352L323 435Q387 544 387
614Q387 633 380 648L384 653Q445 655 488 667Q478 615 442 547T380 442Q317 353 285 314Z" />
<glyph unicode="Z" glyph-name="Z" horiz-adv-x="433" d="M349 91Q349 104 346 113L349 120Q379 128 414 149Q432 142 432 121Q432 73 356 19T221 -44Q117 17 63 17T-17 -14L-28 -4Q5 29 117 220L325 577L322 580Q315 576 299 572Q293 574 279 579T260 587T243
593T224 598T206 602Q192 606 167 606T125 600Q102 579 102 535Q102 522 105 512L102 505Q69 497 37 476Q19 483 19 504Q19 551 92 607T226 683Q303 649 353 649T428 679L440 670Q400 619 315 455L117 73L121 70Q139 78 144 79Q228 33 327 33Q349 47 349 91Z" />
<glyph unicode="[" glyph-name="bracketleft" horiz-adv-x="319" d="M245 -193Q137 -193 75 -208L68 -203Q84 -133 108 220T132 631T131 699L139 704Q199 689 307 689Q320 689 333 689L331 668Q254 666 198 651L142 -155Q194 -170 272 -172L271 -193Q258 -193 245 -193Z" />
<glyph unicode="\" glyph-name="backslash" horiz-adv-x="266" d="M216 -45H211L70 478Q31 623 7 696Q38 706 57 717H61Q78 631 114 493L201 175Q230 71 259 -17Q243 -34 216 -45Z" />
<glyph unicode="]" glyph-name="bracketright" horiz-adv-x="318" d="M74 689Q182 689 244 704L250 699Q235 625 211 270T186 -139T187 -203L180 -208Q120 -193 12 -193Q-1 -193 -14 -193L-13 -172Q65 -170 121 -155L177 651Q125 666 46 668L48 689Q61 689 74 689Z" />
<glyph unicode="^" glyph-name="asciicircum" horiz-adv-x="518" d="M259 580L79 291L50 306Q142 464 231 686L284 696Q379 458 468 306L439 291L259 580Z" />
<glyph unicode="_" glyph-name="underscore" horiz-adv-x="645" d="M30 -134Q199 -143 399 -143T638 -140L644 -146L615 -185H9L1 -178L30 -134Z" />
<glyph unicode="`" glyph-name="grave" horiz-adv-x="200" d="M23 695Q31 697 41 697T61 696Q98 629 200 560L190 543L0 642Q1 651 8 669T23 695Z" />
<glyph unicode="a" glyph-name="a" horiz-adv-x="486" d="M48 143Q48 251 95 349T230 485Q280 485 334 450Q350 489 370 517L384 513Q352 428 352 234Q352 117 360 70Q390 96 419 148T463 247L477 244Q458 167 421 95T333 -15Q303 -4 293 31T283 167Q288 208 297
241L287 242Q269 164 229 92T132 -15Q90 -8 69 40T48 143ZM119 174Q119 141 127 108T156 67Q205 102 248 211T291 388Q256 423 205 423Q178 423 164 409Q119 315 119 174Z" />
<glyph unicode="b" glyph-name="b" horiz-adv-x="433" d="M390 347Q390 238 345 139T216 -15L191 -7Q134 11 106 11T58 7L52 20Q73 42 80 103T88 303L89 442Q89 561 82 628Q44 631 4 642V656Q105 656 195 703L203 690Q180 669 169 635T157 572T155 489V303Q150
262 141 229L151 228Q169 305 210 378T308 485Q390 470 390 347ZM141 79Q206 52 233 52T265 56Q292 105 305 177T319 321T282 406Q234 370 194 272T141 93V79Z" />
<glyph unicode="c" glyph-name="c" horiz-adv-x="362" d="M47 157Q47 258 88 347T208 485Q257 467 293 467T342 471L348 456Q307 422 307 313H293Q282 353 279 390L252 401Q205 420 169 425Q118 328 118 209T190 61Q265 115 302 214L325 205Q303 139 261 79T165
-15Q108 -4 78 44T47 157Z" />
<glyph unicode="d" glyph-name="d" horiz-adv-x="377" d="M364 418Q364 308 308 184T169 -15Q49 12 49 173Q49 260 90 346T201 484Q123 536 20 569L-6 578Q3 618 3 642T1 696L17 698Q21 684 32 666T114 607L355 471Q364 447 364 418ZM163 409Q120 313 120 206T194
63Q238 109 265 198T292 345T287 419Q235 461 215 474L163 409Z" />
<glyph unicode="e" glyph-name="e" horiz-adv-x="373" d="M383 275Q260 275 118 236Q118 95 191 61Q266 115 303 214L326 205Q304 139 262 79T166 -15Q47 13 47 177Q47 297 110 385T283 480L294 473Q298 394 314 299L383 289V275ZM118 257Q173 278 237 291Q231
361 231 441Q179 427 149 373T118 257Z" />
<glyph unicode="f" glyph-name="f" horiz-adv-x="263" d="M164 422Q150 368 150 200T158 0Q91 -78 83 -202L65 -200Q63 -187 63 -162T70 -52T78 79L82 235Q83 269 83 319T77 428Q47 431 44 431L42 447Q55 455 78 464Q78 545 121 614T237 713L250 706Q306 675 336
675L340 660Q284 627 284 546H270Q260 584 260 626L242 636Q205 656 188 661Q135 610 135 553T156 472Q205 476 245 486L250 480Q239 448 235 414Q199 420 164 422Z" />
<glyph unicode="g" glyph-name="g" horiz-adv-x="442" d="M52 143Q52 251 100 349T234 485Q284 485 338 450Q362 501 374 517L388 513Q356 428 356 234Q356 116 365 43T406 -115Q374 -150 341 -215L310 -200Q177 -136 75 -136Q7 -136 -44 -195L-55 -186Q-9 -115
134 -15Q93 -5 73 42T52 143ZM123 175Q123 142 132 107T161 65Q210 100 252 209T295 388Q260 423 209 423Q182 423 168 409Q123 309 123 175ZM121 -74T212 -99T332 -125T370 -117Q333 -63 310 4T287 133V167Q292 208 301 241L291 242Q243 46 88 -74Q121 -74 212
-99Z" />
<glyph unicode="h" glyph-name="h" horiz-adv-x="483" d="M62 -10Q82 59 82 278T77 576T54 702L68 706Q86 679 105 640Q168 717 261 750L266 736Q148 686 148 475V303Q143 262 134 229L144 228Q162 305 203 378T301 485Q383 470 383 347Q383 298 371 216T358 84V68Q388
94 417 147T462 247L476 244Q457 166 421 95T334 -15Q286 1 286 76Q286 107 299 197T312 319Q312 393 275 406Q226 371 183 261T140 81Q140 42 148 0Q123 -2 68 -15L62 -10Z" />
<glyph unicode="i" glyph-name="i" horiz-adv-x="299" d="M202 472Q168 382 168 86V70Q198 96 227 148T271 247L285 244Q266 166 230 95T143 -15Q95 1 95 76Q95 118 100 220T105 368T103 442Q65 445 25 456V470Q121 470 195 485L202 472ZM204 620Q195 605 177
583T144 552Q120 569 96 620Q103 633 122 650T155 675Q180 659 204 620Z" />
<glyph unicode="j" glyph-name="j" horiz-adv-x="243" d="M195 472Q166 376 166 136Q166 34 174 0Q107 -78 99 -202L81 -200Q79 -187 79 -162T85 -56T94 79L98 235Q99 262 99 310T96 442Q58 445 18 456V470Q114 470 188 485L195 472ZM198 620Q189 605 171 583T138
552Q114 569 90 620Q97 633 116 650T149 675Q174 659 198 620Z" />
<glyph unicode="k" glyph-name="k" horiz-adv-x="468" d="M150 489V303Q145 262 136 229L146 228Q164 305 205 378T303 485Q346 477 369 438T392 347Q392 262 289 215Q310 140 347 83L358 66Q388 93 418 147T464 247L478 244Q459 166 423 95T336 -15Q289 3 261
76T226 211V218Q273 229 297 252T321 312Q321 387 277 403Q227 368 185 260T142 81Q142 42 150 0Q125 -2 70 -15L64 -10Q84 59 84 442Q84 561 77 628Q39 631 -1 642V656Q100 656 190 703L198 690Q175 669 164 635T152 572T150 489Z" />
<glyph unicode="l" glyph-name="l" horiz-adv-x="282" d="M78 76L89 442Q89 590 85 628Q47 631 7 642V656Q114 656 204 703L212 690Q180 661 170 620Q151 534 151 86V70Q181 96 210 148T254 247L268 244Q249 166 213 95T126 -15Q78 1 78 76Z" />
<glyph unicode="m" glyph-name="m" horiz-adv-x="711" d="M612 347Q612 298 600 216T587 84V68Q617 94 646 147T691 247L705 244Q686 166 650 95T563 -15Q515 2 515 76Q515 107 528 197T541 319Q541 394 504 406Q456 372 417 264T377 81Q377 42 385 0Q348 -3 303
-15L297 -10Q323 142 323 319Q323 394 286 406Q238 372 198 262T158 81Q158 42 166 0Q137 -2 83 -15L77 -10Q97 59 97 214T91 442Q53 445 13 456V470Q102 470 176 485L183 472Q166 428 166 303Q161 262 152 229L162 228Q217 427 312 485Q355 477 376 438T398 347Q390
301 370 229L380 228Q435 427 530 485Q612 470 612 347Z" />
<glyph unicode="n" glyph-name="n" horiz-adv-x="502" d="M402 347Q402 296 390 209T377 68Q407 94 436 147T481 247L495 244Q476 166 440 95T353 -15Q305 2 305 76Q305 107 318 197T331 319Q331 393 294 406Q245 371 202 261T159 81Q159 42 167 0Q138 -2 84 -15L78
-10Q98 59 98 214T92 442Q54 445 14 456V470Q103 470 177 485L184 472Q167 428 167 303Q162 262 153 229L163 228Q181 305 222 378T320 485Q402 470 402 347Z" />
<glyph unicode="o" glyph-name="o" horiz-adv-x="407" d="M243 57Q288 155 288 290T207 425Q180 425 161 413Q118 319 118 184Q118 128 136 87T197 45Q224 45 243 57ZM116 -15T82 37T47 181T92 360T221 485Q360 485 360 300Q360 199 314 109T185 -15Q116 -15 82 37Z" />
<glyph unicode="p" glyph-name="p" horiz-adv-x="452" d="M409 347Q409 238 364 139T235 -15L212 -7Q177 5 160 7V-15Q160 -93 167 -143L171 -170Q114 -186 71 -215L61 -202Q97 -169 99 -98L102 18Q78 18 59 6L50 17Q67 41 103 79L105 236Q105 247 105 293T99
442Q61 445 21 456V470Q110 470 184 485L191 472Q174 428 174 303Q169 262 160 229L170 228Q188 305 229 378T327 485Q409 470 409 347ZM160 79Q225 52 252 52T284 56Q311 105 324 177T338 321T301 406Q253 370 213 272T160 93V79Z" />
<glyph unicode="q" glyph-name="q" horiz-adv-x="436" d="M48 143Q48 251 95 349T230 485Q246 479 285 473T347 466T391 481L401 468Q386 452 360 431Q345 335 345 143T351 -101Q384 -95 416 -93L420 -106Q323 -139 248 -215L236 -206Q265 -161 271 -122T280 18L283
167Q288 208 297 241L287 242Q269 164 229 92T132 -15Q90 -8 69 40T48 143ZM291 400Q245 423 212 423T164 409Q119 315 119 174Q119 141 127 108T156 67Q210 110 250 216T291 400Z" />
<glyph unicode="r" glyph-name="r" horiz-adv-x="375" d="M311 381Q286 396 272 400Q230 335 197 239T163 74Q163 42 171 0Q142 -2 88 -15L82 -10Q98 45 98 207T92 442Q54 445 14 456V470Q103 470 177 485L184 472Q167 428 167 296Q165 267 155 222L165 221Q179
295 210 368T286 485L299 478Q355 447 385 447L389 432Q338 390 335 300H321Q311 338 311 381Z" />
<glyph unicode="s" glyph-name="s" horiz-adv-x="355" d="M101 190Q93 169 93 146T124 88T187 43Q206 55 231 97T257 161T226 204T158 241T90 281T59 329Q59 377 106 420T210 485Q262 466 295 466T349 481L359 468Q303 417 281 387L250 400Q201 419 164 425Q147
420 131 405T115 372T147 333T217 295T287 256T319 208Q319 158 269 93T165 -15Q129 -6 92 22T30 84L10 111Q58 155 87 197L101 190Z" />
<glyph unicode="t" glyph-name="t" horiz-adv-x="286" d="M163 422Q146 280 146 78V62Q221 116 258 215L272 211Q218 46 121 -14Q73 2 73 77Q73 131 78 223T83 361T80 428Q62 431 46 431L44 447Q100 499 129 564Q155 574 170 585L176 580Q165 531 165 505T165
472Q207 475 246 486L251 480Q240 448 236 414Q197 421 163 422Z" />
<glyph unicode="u" glyph-name="u" horiz-adv-x="524" d="M189 413T174 312T159 144T196 64Q245 99 288 209T331 389Q331 428 323 470Q352 472 406 485L412 480Q392 411 392 264T400 70Q430 96 459 148T503 247L517 244Q498 167 461 95T373 -15Q343 -4 333 31T323
167Q328 208 337 241L327 242Q309 165 268 92T170 -15Q88 0 88 123Q88 170 101 263T115 389T112 442Q74 445 34 456V470Q123 470 197 485L204 472Q189 413 174 312Z" />
<glyph unicode="v" glyph-name="v" horiz-adv-x="444" d="M197 472Q181 431 176 313T171 158T172 107Q199 80 242 63Q331 192 331 362Q331 445 265 455L266 470Q374 470 448 514L454 501Q434 484 403 462Q409 441 409 418Q409 323 361 206T216 -15L204 -7Q163
20 144 28T106 36T75 34L71 47Q91 66 100 107T109 259T103 442Q65 445 25 456V470Q116 470 190 485L197 472Z" />
<glyph unicode="w" glyph-name="w" horiz-adv-x="648" d="M194 472Q178 431 173 313T168 158T169 107Q193 83 244 63Q324 176 324 362Q324 447 259 459L260 475Q337 470 454 470T645 514L651 501Q631 484 600 462Q606 441 606 418Q606 318 548 188T414 -15Q352
2 290 79Q260 33 218 -15L206 -7Q166 19 145 27T104 36T72 34L68 47Q88 66 97 107T106 259T100 442Q62 445 22 456V470Q113 470 187 485L194 472ZM403 418Q403 298 333 156Q340 129 369 97T430 50Q478 110 503 195T528 362Q528 455 462 455Q425 455 401 444Q403
426 403 418Z" />
<glyph unicode="x" glyph-name="x" horiz-adv-x="452" d="M322 410Q248 295 248 205Q248 193 252 181Q282 73 318 57Q392 110 431 214L445 210Q391 45 294 -15Q260 -7 240 21T203 114L182 198L179 199Q175 58 119 -14L104 -9Q76 1 44 1T-1 -3L-7 12Q34 46 34 155H48Q55
134 62 78Q96 63 114 59Q136 86 147 145T159 237T156 281Q122 418 105 442Q75 444 33 456V470Q122 470 196 485L203 472Q198 459 198 426T218 310L230 261L233 262Q253 404 319 482L334 477Q362 467 393 467T439 471L445 456Q404 422 404 313H390Q383 334 376 390Q336
408 322 410Z" />
<glyph unicode="y" glyph-name="y" horiz-adv-x="459" d="M69 123Q69 170 82 263T96 389T93 442Q55 445 15 456V470Q104 470 178 485L185 472Q170 413 155 312T140 144T177 64Q226 99 269 209T312 389Q312 428 304 470Q333 472 387 485L393 480Q373 398 373 257T382
43T423 -115Q391 -150 358 -215L327 -200Q194 -136 92 -136Q24 -136 -27 -195L-38 -186Q8 -115 151 -15Q69 0 69 123ZM138 -74T229 -99T349 -125T387 -117Q350 -63 327 4T304 133V167Q309 208 318 241L308 242Q260 46 105 -74Q138 -74 229 -99Z" />
<glyph unicode="z" glyph-name="z" horiz-adv-x="364" d="M103 235Q98 235 90 232L83 248Q186 293 253 390Q185 405 141 405T87 400Q66 354 51 333L37 340Q57 390 57 428T45 486L56 498Q104 466 237 466Q292 466 328 470L333 454Q305 407 266 362T187 287V283Q233
275 262 258Q282 268 316 280L321 266Q297 255 280 244Q321 207 321 137T272 -1T158 -115Q120 -106 76 -71T16 0Q39 131 181 215Q149 235 103 235ZM251 80Q251 160 196 204Q152 173 119 132T86 56T117 -12T180 -57Q209 -36 230 4T251 80Z" />
<glyph unicode="{" glyph-name="braceleft" horiz-adv-x="300" d="M176 604Q175 594 175 566T188 458T202 356T202 329Q184 295 105 250V246Q178 202 190 167Q187 128 158 34T126 -108Q133 -135 155 -161T203 -201L198 -215Q151 -201 112 -161T73 -79Q73 -44 96
54T119 189Q119 208 100 220T54 236L51 255Q125 271 127 309Q128 325 128 354T123 442T117 528T118 569Q122 613 168 655T263 711L266 697Q238 683 212 657T176 604Z" />
<glyph unicode="|" glyph-name="bar" horiz-adv-x="238" d="M144 -199Q126 -209 103 -216L96 -213Q96 476 89 723Q123 737 141 750L146 749Q144 607 144 -199Z" />
<glyph unicode="}" glyph-name="braceright" horiz-adv-x="301" d="M227 569Q224 521 203 432T182 308T250 255L245 236Q177 225 174 187Q173 174 173 145T178 60T183 -27T182 -73Q179 -117 133 -159T37 -215L34 -201Q62 -187 88 -161T125 -108Q125 -101 125 -74T112
33T99 136T99 167Q115 200 196 246V250Q122 295 111 329Q113 369 142 463T175 604Q168 631 146 657T97 697L102 711Q149 697 188 657T227 577Q227 573 227 569Z" />
<glyph unicode="~" glyph-name="asciitilde" horiz-adv-x="570" d="M387 258Q445 258 506 317L522 304Q499 268 454 237T365 193Q334 193 266 223T166 254Q107 254 64 199L48 212Q74 251 122 284T215 323Q311 258 387 258Z" />
<glyph unicode="&#xa0;" glyph-name="nbspace" horiz-adv-x="165" />
<glyph unicode="&#xa1;" glyph-name="exclamdown" horiz-adv-x="207" d="M19 -200Q16 -200 13 -200Q1 -188 -14 -160Q40 1 85 301L111 303L82 -183Q46 -200 19 -200ZM161 430Q152 415 134 393T101 362Q77 379 53 430Q60 443 79 460T112 485Q137 469 161 430Z" />
<glyph unicode="&#xa2;" glyph-name="cent" horiz-adv-x="362" d="M252 416L220 427L196 81Q267 135 302 229L325 220Q283 92 192 19L187 -91L182 -92Q166 -87 155 -77L165 0Q108 11 78 59T47 172Q47 269 85 356T197 493L202 588Q217 590 230 594L234 591Q230
562 225 494Q271 482 300 482T342 486L348 471Q307 437 307 328H293Q282 368 279 405L252 416ZM118 218Q118 123 170 87L193 435L169 440Q118 343 118 218Z" />
<glyph unicode="&#xa3;" glyph-name="sterling" horiz-adv-x="376" d="M82 134L77 249L28 246L21 251L35 291H81Q108 448 235 538Q284 518 320 518T369 523L375 506Q334 468 334 365H320Q308 413 306 440L279 452Q239 470 199 477Q153 398 153 293Q210 295 297
305L304 300L289 265L151 254Q151 146 107 81Q164 69 211 69T278 78Q298 123 313 143L327 136Q307 86 307 50T319 -5L311 -17Q218 8 94 8Q52 8 30 -7L21 -1Q53 33 67 63T82 134Z" />
<glyph unicode="&#xa4;" glyph-name="currency" horiz-adv-x="567" d="M74 279Q74 362 136 431Q98 469 42 521Q49 548 69 568H74L172 463Q234 509 311 523Q391 523 438 488L520 568Q563 553 572 552L574 548L468 455Q494 415 494 357Q494 267 426 199Q526 97 541
83L539 79Q526 77 485 63L390 168Q338 130 271 116Q187 116 136 151L39 63H34Q16 85 13 110Q53 142 102 185Q74 222 74 279ZM279 469Q222 469 187 443Q151 394 151 322T185 210T283 170T381 196Q418 244 418 317Q418 469 279 469Z" />
<glyph unicode="&#xa5;" glyph-name="yen" horiz-adv-x="445" d="M252 177Q309 177 359 183L362 179Q352 164 347 147L252 144Q252 39 261 -3Q209 -7 175 -15L170 -11Q181 38 189 142Q115 138 85 134L82 138Q101 157 110 170L192 174Q194 200 194 216Q130 213
85 207L82 211Q101 230 110 243L189 247Q182 262 169 291Q102 440 68 495Q27 500 1 509L2 523Q17 523 63 523T162 532Q183 416 244 276L277 335Q329 427 329 490Q329 507 324 518L327 522Q382 524 417 533Q408 479 372 421Q359 399 352 386T327 348T302 315Q268
267 255 251Q317 251 359 256L362 252Q352 237 347 220L252 217V177Z" />
<glyph unicode="&#xa6;" glyph-name="brokenbar" horiz-adv-x="245" d="M149 340Q131 330 108 323L101 326Q100 508 94 725Q128 739 146 752L151 751Q149 609 149 340ZM149 -198Q131 -208 108 -215L101 -212Q100 -30 94 187Q128 201 146 214L151 213Q149 71 149 -198Z" />
<glyph unicode="&#xa7;" glyph-name="section" horiz-adv-x="389" d="M5 263Q5 339 113 412Q70 448 70 485Q70 537 120 586T233 666Q285 647 318 647T372 662L382 649Q326 598 304 568L273 581Q224 601 188 606Q134 576 134 542Q134 518 159 492T221 442T294 395Q381
337 381 288Q381 212 273 139Q316 99 316 66Q316 14 266 -35T153 -115Q101 -96 68 -96T14 -111L4 -98Q60 -47 82 -17L113 -30Q162 -50 198 -55Q252 -24 252 9Q252 53 165 109Q129 132 92 156Q5 214 5 263ZM317 231Q317 257 293 281T211 343T138 391Q69 359 69 320Q69
294 93 270T175 208T248 159Q317 191 317 231Z" />
<glyph unicode="&#xa8;" glyph-name="dieresis" horiz-adv-x="273" d="M273 620Q264 605 246 583T213 552Q189 569 165 620Q172 633 191 650T224 675Q249 659 273 620ZM108 620Q99 605 81 583T48 552Q24 569 0 620Q7 633 26 650T59 675Q84 659 108 620Z" />
<glyph unicode="&#xa9;" glyph-name="copyright" horiz-adv-x="765" d="M294 261T313 219T384 177T484 221L496 208Q452 153 374 119Q299 119 261 164T223 287T271 436T392 531Q455 531 512 518L511 501Q494 499 487 494Q471 459 466 411H448Q441 441 441 464Q413
479 379 479T322 463Q294 409 294 335ZM42 184T42 325T141 566T382 666T623 566T723 325T623 85T382 -15T142 84ZM86 448T86 325T172 115T382 27T592 114T679 325T592 536T382 624T173 536Z" />
<glyph unicode="&#xaa;" glyph-name="ordfeminine" horiz-adv-x="439" d="M63 389Q63 477 104 559T217 672Q260 672 307 643Q319 671 337 698L348 695Q322 626 322 464Q322 376 328 333Q353 355 377 396T413 475L425 473Q410 410 378 350T304 259Q279 268 270
297T261 409Q263 426 272 470L264 471Q250 407 217 347T136 259Q101 265 82 305T63 389ZM129 415Q129 341 156 330Q195 359 230 447T265 589Q235 617 197 617Q177 617 166 606Q129 531 129 415Z" />
<glyph unicode="&#xab;" glyph-name="guillemotleft" horiz-adv-x="447" d="M137 283L226 125L204 111Q126 216 46 269L48 289Q150 341 244 439L262 426L137 283ZM313 285L394 142L372 128Q293 224 222 271L224 291Q331 345 409 426L426 413L313 285Z" />
<glyph unicode="&#xac;" glyph-name="logicalnot" horiz-adv-x="550" d="M447 238H59L51 245L60 296Q229 287 339 287T488 290L494 284Q494 220 499 88L494 82L447 91V238Z" />
<glyph unicode="&#xae;" glyph-name="registered" horiz-adv-x="434" d="M21 418T21 500T78 639T217 696T356 639T413 500T356 361T217 304T78 361ZM57 568T57 500T103 385T217 338T329 385T375 500T330 614T217 660T104 614ZM129 605L219 608Q255 608 274 599T293
556T256 508L299 420L319 415V404Q298 407 277 407T240 405L238 412Q244 417 244 434T218 503Q210 506 203 506L204 517H208Q247 517 247 556Q247 590 214 590Q205 590 197 587Q196 568 196 501T199 420L221 415L220 404Q197 407 173 407T125 404V415Q137 418 150
420Q154 460 154 514T151 589Q139 593 129 593V605Z" />
<glyph unicode="&#xaf;" glyph-name="overscore" horiz-adv-x="257" d="M59 638Q119 636 161 636T250 639L257 635L238 587L8 585L0 590L19 641L59 638Z" />
<glyph unicode="&#xb0;" glyph-name="degree" horiz-adv-x="364" d="M112 396T77 425T42 512T88 613T200 667Q322 667 322 562Q322 500 280 454T173 396Q112 396 77 425ZM179 628Q140 628 120 611Q101 582 101 538Q101 435 185 435Q224 435 244 452Q263 480 263
525Q263 628 179 628Z" />
<glyph unicode="&#xb1;" glyph-name="plusminus" horiz-adv-x="550" d="M299 267Q299 185 308 90L262 81L252 88V267H66L58 274L67 325Q189 319 252 318V476L299 485L304 479Q299 391 299 318V317Q336 316 396 316T495 319L501 313L492 267H299ZM59 58Q229 49
338 49T487 52L493 46L484 0H58L50 7L59 58Z" />
<glyph unicode="&#xb2;" glyph-name="twosuperior" horiz-adv-x="330" d="M155 689Q133 689 115 680Q110 660 110 650T118 631L117 626Q96 609 84 594Q75 594 69 600T62 616Q62 656 99 694T180 746Q229 746 252 713T275 629Q275 625 275 621Q252 580 188 515T104
420Q147 410 184 410T236 417Q254 455 265 470L276 464Q260 424 260 394T270 349L263 339Q189 360 87 360Q54 360 35 347L28 352Q53 417 134 501Q204 574 204 631T155 689Z" />
<glyph unicode="&#xb3;" glyph-name="threesuperior" horiz-adv-x="360" d="M233 488Q233 564 154 564Q144 564 128 562L123 572Q153 586 180 612T224 668Q188 677 162 677T126 674Q107 641 98 630L87 634Q103 671 103 700T93 742L102 752Q140 727 228 727Q268
727 300 730L304 717Q259 644 196 596V593Q298 593 298 516Q298 473 254 418T165 340Q114 351 61 406L45 423Q86 453 106 492L118 487Q110 472 110 457T136 419T186 390Q206 404 219 433T233 488Z" />
<glyph unicode="&#xb4;" glyph-name="acute" horiz-adv-x="200" d="M139 696Q149 697 159 697T177 695Q184 688 191 670T200 642L10 543L0 560Q102 629 139 696Z" />
<glyph unicode="&#xb5;" glyph-name="mu" horiz-adv-x="510" d="M145 151Q145 77 182 64Q231 99 274 209T317 389Q317 428 309 470Q338 472 392 485L398 480Q378 411 378 264T386 70Q416 96 445 148T489 247L503 244Q484 167 447 95T359 -15Q329 -4 319 31T309
167Q314 208 323 241L313 242Q295 165 254 92T156 -15Q142 -12 129 -1Q129 -106 150 -196L147 -199Q103 -207 71 -219L62 -212Q76 -116 81 143L85 331Q85 342 85 383T79 467L83 470Q140 476 175 485L181 480Q145 344 145 151Z" />
<glyph unicode="&#xb6;" glyph-name="paragraph" horiz-adv-x="574" d="M242 658L367 651L371 646Q347 536 332 325L322 181Q311 34 284 -19Q250 -85 199 -104Q168 -115 127 -115Q115 -115 107 -108T98 -88Q130 -63 144 -38L151 -37Q164 -47 191 -47T237 -39Q268
22 276 131L287 298Q269 295 253 295Q158 295 94 351T30 497Q30 658 242 658ZM484 634T458 499T432 210T447 0Q391 -3 345 -15L341 -11Q365 54 383 310T419 651Q469 654 518 677L525 664Q484 634 458 499Z" />
<glyph unicode="&#xb7;" glyph-name="middot" horiz-adv-x="200" d="M154 285Q145 270 127 248T94 217Q70 234 46 285Q53 298 72 315T105 340Q130 324 154 285Z" />
<glyph unicode="&#xb8;" glyph-name="cedilla" horiz-adv-x="186" d="M186 -119Q186 -126 185 -133Q145 -195 84 -215Q40 -215 0 -194Q14 -170 20 -155L24 -153Q53 -178 89 -178Q107 -178 115 -173Q128 -158 128 -135T108 -105T51 -97L45 -93L106 14L135 16L101
-46L104 -49Q145 -49 165 -69T186 -119Z" />
<glyph unicode="&#xb9;" glyph-name="onesuperior" horiz-adv-x="310" d="M205 744Q190 629 190 527T193 390Q209 372 238 358L233 342Q200 351 151 351T63 343L60 358Q88 372 116 380Q128 464 128 599Q128 619 126 665H66L64 667Q64 678 66 684Q138 704 177 744Q191
746 203 746L205 744Z" />
<glyph unicode="&#xba;" glyph-name="ordmasculine" horiz-adv-x="392" d="M224 321Q260 399 260 506T197 614Q179 614 163 604Q128 527 128 421Q128 376 142 344T190 311Q208 311 224 321ZM123 259T93 302T63 419T101 564T208 666Q329 666 329 515Q329 434 289
361T180 259Q123 259 93 302Z" />
<glyph unicode="&#xbb;" glyph-name="guillemotright" horiz-adv-x="449" d="M185 125L312 283L225 426L243 439Q314 340 403 289L401 269Q312 220 203 111L185 125ZM21 142L136 285L57 413L76 426Q134 346 227 291L225 271Q141 223 39 128L21 142Z" />
<glyph unicode="&#xbc;" glyph-name="onequarter" horiz-adv-x="800" d="M99 -42L94 -41Q78 -27 67 -1Q150 94 204 160L482 511Q547 593 628 704Q649 699 680 697L684 694Q649 654 535 510L99 -42ZM670 119Q670 73 673 53Q689 34 719 20L714 4Q681 13 632 13T544
5L541 20Q569 34 597 42Q605 79 606 119H440L437 129Q542 250 615 399Q666 402 692 416L698 413Q674 355 671 159Q705 159 738 172L741 168Q733 148 729 115Q704 119 670 119ZM608 333Q567 232 518 166Q552 160 607 160L613 333H608ZM211 665Q196 550 196 448T199
311Q215 293 244 279L239 263Q206 272 157 272T69 264L66 279Q94 293 122 301Q134 385 134 520Q134 540 132 586H72L70 588Q70 599 72 605Q144 625 183 665Q197 667 209 667L211 665Z" />
<glyph unicode="&#xbd;" glyph-name="onehalf" horiz-adv-x="800" d="M592 350Q570 350 552 341Q547 321 547 311T555 292L554 287Q533 270 521 255Q512 255 506 261T499 277Q499 317 536 355T617 407Q666 407 689 374T712 290Q712 286 712 282Q689 241 625 176T541
81Q584 71 621 71T673 78Q691 116 702 131L713 125Q697 85 697 55T707 10L700 0Q626 21 524 21Q491 21 472 8L465 13Q490 78 571 162Q641 235 641 292T592 350ZM119 -42L114 -41Q98 -27 87 -1Q170 94 224 160L502 511Q567 593 648 704Q669 699 700 697L704 694Q669
654 555 510L119 -42ZM231 665Q216 550 216 448T219 311Q235 293 264 279L259 263Q226 272 177 272T89 264L86 279Q114 293 142 301Q154 385 154 520Q154 540 152 586H92L90 588Q90 599 92 605Q164 625 203 665Q217 667 229 667L231 665Z" />
<glyph unicode="&#xbe;" glyph-name="threequarters" horiz-adv-x="800" d="M109 -42L104 -41Q88 -27 77 -1Q160 94 214 160L492 511Q557 593 638 704Q659 699 690 697L694 694Q659 654 545 510L109 -42ZM680 119Q680 73 683 53Q699 34 729 20L724 4Q691 13 642
13T554 5L551 20Q579 34 607 42Q615 79 616 119H450L447 129Q552 250 625 399Q676 402 702 416L708 413Q684 355 681 159Q715 159 748 172L751 168Q743 148 739 115Q714 119 680 119ZM618 333Q577 232 528 166Q562 160 617 160L623 333H618ZM232 409Q232 485 153
485Q143 485 127 483L122 493Q152 507 179 533T223 589Q187 598 161 598T125 595Q106 562 97 551L86 555Q102 592 102 621T92 663L101 673Q139 648 227 648Q268 648 299 651L303 638Q258 565 195 517V514Q297 514 297 437Q297 394 253 339T164 261Q113 272 60 327L44
344Q85 374 105 413L117 408Q109 393 109 378T135 340T185 311Q205 325 218 354T232 409Z" />
<glyph unicode="&#xbf;" glyph-name="questiondown" horiz-adv-x="253" d="M107 101T69 38T31 -84T94 -143Q125 -143 148 -132Q160 -115 160 -96T153 -70L155 -63Q183 -45 201 -23Q223 -23 223 -45Q223 -101 176 -142T63 -205Q-4 -205 -29 -172T-54 -66Q-27 -11
25 50Q41 69 46 74Q77 113 93 129Q97 143 111 199T135 288L161 290L160 153Q107 101 69 38ZM207 430Q198 415 180 393T147 362Q123 379 99 430Q106 443 125 460T158 485Q183 469 207 430Z" />
<glyph unicode="&#xc0;" glyph-name="Agrave" horiz-adv-x="524" d="M343 226Q307 232 271 232T202 232T142 226Q116 128 116 61Q116 34 123 -1Q54 -1 6 -15L-1 -7L221 621Q170 629 128 648L130 660Q193 651 295 651T441 659L447 654Q433 595 423 458T413 190T424
0Q362 -4 322 -15L316 -10Q332 64 343 226ZM156 276Q182 269 247 269T346 277Q351 385 351 463T345 612Q333 615 313 615T278 612Q255 582 230 503L156 276ZM335 733L137 808Q137 817 143 835T155 862Q170 867 194 867Q216 836 259 804T344 751L335 733Z" />
<glyph unicode="&#xc1;" glyph-name="Aacute" horiz-adv-x="524" d="M343 226Q307 232 271 232T202 232T142 226Q116 128 116 61Q116 34 123 -1Q54 -1 6 -15L-1 -7L221 621Q170 629 128 648L130 660Q193 651 295 651T441 659L447 654Q433 595 423 458T413 190T424
0Q362 -4 322 -15L316 -10Q332 64 343 226ZM156 276Q182 269 247 269T346 277Q351 385 351 463T345 612Q333 615 313 615T278 612Q255 582 230 503L156 276ZM500 808L302 733L293 751Q334 771 377 803T443 867Q467 867 482 862Q488 854 494 836T500 808Z" />
<glyph unicode="&#xc2;" glyph-name="Acircumflex" horiz-adv-x="524" d="M343 226Q307 232 271 232T202 232T142 226Q116 128 116 61Q116 34 123 -1Q54 -1 6 -15L-1 -7L221 621Q170 629 128 648L130 660Q193 651 295 651T441 659L447 654Q433 595 423 458T413
190T424 0Q362 -4 322 -15L316 -10Q332 64 343 226ZM156 276Q182 269 247 269T346 277Q351 385 351 463T345 612Q333 615 313 615T278 612Q255 582 230 503L156 276ZM325 797L202 718L191 734Q287 806 333 885H355Q388 796 465 732L450 720L325 797Z" />
<glyph unicode="&#xc3;" glyph-name="Atilde" horiz-adv-x="524" d="M343 226Q307 232 271 232T202 232T142 226Q116 128 116 61Q116 34 123 -1Q54 -1 6 -15L-1 -7L221 621Q170 629 128 648L130 660Q193 651 295 651T441 659L447 654Q433 595 423 458T413 190T424
0Q362 -4 322 -15L316 -10Q332 64 343 226ZM156 276Q182 269 247 269T346 277Q351 385 351 463T345 612Q333 615 313 615T278 612Q255 582 230 503L156 276ZM306 845Q357 812 401 812T468 836L484 824Q446 771 388 747Q370 747 324 763T260 780Q226 780 204 756L187
768Q225 820 306 845Z" />
<glyph unicode="&#xc4;" glyph-name="Adieresis" horiz-adv-x="524" d="M343 226Q307 232 271 232T202 232T142 226Q116 128 116 61Q116 34 123 -1Q54 -1 6 -15L-1 -7L221 621Q170 629 128 648L130 660Q193 651 295 651T441 659L447 654Q433 595 423 458T413 190T424
0Q362 -4 322 -15L316 -10Q332 64 343 226ZM156 276Q182 269 247 269T346 277Q351 385 351 463T345 612Q333 615 313 615T278 612Q255 582 230 503L156 276ZM465 803Q456 788 438 766T405 735Q381 752 357 803Q364 816 383 833T416 858Q441 842 465 803ZM300 803Q291
788 273 766T240 735Q216 752 192 803Q199 816 218 833T251 858Q276 842 300 803Z" />
<glyph unicode="&#xc5;" glyph-name="Aring" horiz-adv-x="524" d="M378 823T364 836T329 850T296 841Q279 821 279 788Q279 739 330 739Q350 739 361 748Q378 768 378 795ZM280 704T255 720T229 773T262 840T345 885Q428 885 428 824Q428 780 397 749T318 704Q280
704 255 720ZM343 226Q307 232 271 232T202 232T142 226Q116 128 116 61Q116 34 123 -1Q54 -1 6 -15L-1 -7L221 621Q170 629 128 648L130 660Q193 651 295 651T441 659L447 654Q433 595 423 458T413 190T424 0Q362 -4 322 -15L316 -10Q332 64 343 226ZM156 276Q182
269 247 269T346 277Q351 385 351 463T345 612Q333 615 313 615T278 612Q255 582 230 503L156 276Z" />
<glyph unicode="&#xc6;" glyph-name="AE" horiz-adv-x="656" d="M577 183Q577 194 574 207L579 212Q626 214 656 223Q643 157 585 85T465 -15Q371 -15 342 70Q322 129 322 206Q322 228 323 252L326 323Q296 328 252 328T169 323L142 226Q116 133 116 61Q116 34
123 -1Q54 -1 6 -15L-1 -7L221 621Q170 629 128 648L130 660Q193 651 383 651T657 663L663 652Q620 611 616 497H604Q589 545 585 593Q539 614 477 614Q448 614 420 609Q405 521 398 374Q423 368 475 368T578 385L583 379Q572 349 568 317Q498 327 453 327T395
324L394 273Q394 141 408 111Q429 66 458 56Q478 50 505 50Q534 68 555 108T577 183ZM333 477Q335 515 335 552T330 612Q318 615 302 615T271 612Q258 593 231 515T185 372Q213 365 256 365T328 372L333 477Z" />
<glyph unicode="&#xc7;" glyph-name="Ccedilla" horiz-adv-x="422" d="M38 234Q38 515 252 666Q297 651 352 651T426 656L432 645Q375 591 375 471H363Q348 519 344 567L319 578Q271 599 214 599Q171 533 146 444T120 262T153 110T273 50Q306 72 325 115T345 203Q345
214 342 227L347 232Q394 234 424 243Q404 160 354 89T233 -15Q137 -15 88 55T38 234ZM308 -119Q308 -126 307 -133Q267 -195 206 -215Q162 -215 122 -194Q136 -170 142 -155L146 -153Q175 -178 211 -178Q229 -178 237 -173Q250 -158 250 -135T230 -105T173 -97L167
-93L228 14L257 16L223 -46L226 -49Q267 -49 287 -69T308 -119Z" />
<glyph unicode="&#xc8;" glyph-name="Egrave" horiz-adv-x="444" d="M371 560Q320 598 268 598T178 573Q167 554 167 524Q167 451 215 411T343 364L337 335Q242 335 184 298T125 180Q125 117 158 82T247 46T337 67Q349 91 349 117T339 155L340 162Q365 177 390
204Q402 203 409 194T417 173Q417 104 363 55T231 -15Q149 -15 96 34T42 161T99 290T240 350V354Q174 364 128 405T82 506Q153 626 294 666Q373 666 426 643Q399 610 378 560H371ZM334 733L136 808Q136 817 142 835T154 862Q169 867 193 867Q215 836 258 804T343
751L334 733Z" />
<glyph unicode="&#xc9;" glyph-name="Eacute" horiz-adv-x="444" d="M371 560Q320 598 268 598T178 573Q167 554 167 524Q167 451 215 411T343 364L337 335Q242 335 184 298T125 180Q125 117 158 82T247 46T337 67Q349 91 349 117T339 155L340 162Q365 177 390
204Q402 203 409 194T417 173Q417 104 363 55T231 -15Q149 -15 96 34T42 161T99 290T240 350V354Q174 364 128 405T82 506Q153 626 294 666Q373 666 426 643Q399 610 378 560H371ZM461 808L263 733L254 751Q295 771 338 803T404 867Q428 867 443 862Q449 854 455
836T461 808Z" />
<glyph unicode="&#xca;" glyph-name="Ecircumflex" horiz-adv-x="444" d="M371 560Q320 598 268 598T178 573Q167 554 167 524Q167 451 215 411T343 364L337 335Q242 335 184 298T125 180Q125 117 158 82T247 46T337 67Q349 91 349 117T339 155L340 162Q365 177
390 204Q402 203 409 194T417 173Q417 104 363 55T231 -15Q149 -15 96 34T42 161T99 290T240 350V354Q174 364 128 405T82 506Q153 626 294 666Q373 666 426 643Q399 610 378 560H371ZM301 797L178 718L167 734Q263 806 309 885H331Q364 796 441 732L426 720L301
797Z" />
<glyph unicode="&#xcb;" glyph-name="Edieresis" horiz-adv-x="444" d="M371 560Q320 598 268 598T178 573Q167 554 167 524Q167 451 215 411T343 364L337 335Q242 335 184 298T125 180Q125 117 158 82T247 46T337 67Q349 91 349 117T339 155L340 162Q365 177
390 204Q402 203 409 194T417 173Q417 104 363 55T231 -15Q149 -15 96 34T42 161T99 290T240 350V354Q174 364 128 405T82 506Q153 626 294 666Q373 666 426 643Q399 610 378 560H371ZM441 803Q432 788 414 766T381 735Q357 752 333 803Q340 816 359 833T392 858Q417
842 441 803ZM276 803Q267 788 249 766T216 735Q192 752 168 803Q175 816 194 833T227 858Q252 842 276 803Z" />
<glyph unicode="&#xcc;" glyph-name="Igrave" horiz-adv-x="292" d="M192 587T183 447T173 179T184 0Q128 -3 82 -15L76 -10Q90 49 100 190T111 448T103 620Q45 625 7 639L8 651Q128 651 202 664L208 659Q192 587 183 447ZM206 733L8 808Q8 817 14 835T26 862Q41
867 65 867Q87 836 130 804T215 751L206 733Z" />
<glyph unicode="&#xcd;" glyph-name="Iacute" horiz-adv-x="292" d="M192 587T183 447T173 179T184 0Q128 -3 82 -15L76 -10Q90 49 100 190T111 448T103 620Q45 625 7 639L8 651Q128 651 202 664L208 659Q192 587 183 447ZM277 808L79 733L70 751Q111 771 154
803T220 867Q244 867 259 862Q265 854 271 836T277 808Z" />
<glyph unicode="&#xce;" glyph-name="Icircumflex" horiz-adv-x="292" d="M192 587T183 447T173 179T184 0Q128 -3 82 -15L76 -10Q90 49 100 190T111 448T103 620Q45 625 7 639L8 651Q128 651 202 664L208 659Q192 587 183 447ZM127 797L4 718L-7 734Q89 806 135
885H157Q190 796 267 732L252 720L127 797Z" />
<glyph unicode="&#xcf;" glyph-name="Idieresis" horiz-adv-x="292" d="M274 803Q265 788 247 766T214 735Q190 752 166 803Q173 816 192 833T225 858Q250 842 274 803ZM109 803Q100 788 82 766T49 735Q25 752 1 803Q8 816 27 833T60 858Q85 842 109 803ZM192
587T183 447T173 179T184 0Q128 -3 82 -15L76 -10Q90 49 100 190T111 448T103 620Q45 625 7 639L8 651Q128 651 202 664L208 659Q192 587 183 447Z" />
<glyph unicode="&#xd0;" glyph-name="Eth" horiz-adv-x="529" d="M278 662Q394 662 442 591T491 376T428 127T230 -15L205 -7Q148 11 120 11T72 7L66 20Q86 41 93 99Q103 195 108 324Q52 321 9 315L6 319Q25 338 34 351L109 353Q111 427 111 496T103 620Q45 625
7 639L8 651Q68 651 158 656T278 662ZM257 52Q319 52 355 85Q382 132 397 202T412 334Q412 625 265 625Q231 625 200 614Q186 527 177 356L218 358Q281 361 302 363L305 359Q295 344 290 327L176 325Q173 253 173 190T177 70Q220 52 257 52Z" />
<glyph unicode="&#xd1;" glyph-name="Ntilde" horiz-adv-x="612" d="M517 600T506 467T495 211T510 0Q466 -4 435 -13L428 -10Q395 94 219 420Q192 471 163 515L159 513Q159 334 168 185T185 0Q133 -3 86 -15L80 -10Q94 49 104 188T114 442T103 620Q45 625 7 639L8
651Q125 651 199 664Q224 556 405 229L449 149L452 150Q452 328 443 471T426 651Q480 654 525 666L531 661Q517 600 506 467ZM315 845Q366 812 410 812T477 836L493 824Q455 771 397 747Q380 747 333 763T269 780Q236 780 213 756L196 768Q234 820 315 845Z" />
<glyph unicode="&#xd2;" glyph-name="Ograve" horiz-adv-x="514" d="M394 396Q394 596 265 596Q227 596 200 580Q162 512 141 425T120 271T132 162T174 86T245 54T312 71Q350 125 372 221T394 396ZM138 -15T88 57T38 228T64 411T147 564T282 666Q476 666 476 413Q476
277 412 155T233 -15Q138 -15 88 57ZM326 733L128 808Q128 817 134 835T146 862Q161 867 185 867Q207 836 250 804T335 751L326 733Z" />
<glyph unicode="&#xd3;" glyph-name="Oacute" horiz-adv-x="514" d="M394 396Q394 596 265 596Q227 596 200 580Q162 512 141 425T120 271T132 162T174 86T245 54T312 71Q350 125 372 221T394 396ZM138 -15T88 57T38 228T64 411T147 564T282 666Q476 666 476 413Q476
277 412 155T233 -15Q138 -15 88 57ZM454 808L256 733L247 751Q288 771 331 803T397 867Q421 867 436 862Q442 854 448 836T454 808Z" />
<glyph unicode="&#xd4;" glyph-name="Ocircumflex" horiz-adv-x="514" d="M394 396Q394 596 265 596Q227 596 200 580Q162 512 141 425T120 271T132 162T174 86T245 54T312 71Q350 125 372 221T394 396ZM138 -15T88 57T38 228T64 411T147 564T282 666Q476 666
476 413Q476 277 412 155T233 -15Q138 -15 88 57ZM291 797L168 718L157 734Q253 806 299 885H321Q354 796 431 732L416 720L291 797Z" />
<glyph unicode="&#xd5;" glyph-name="Otilde" horiz-adv-x="514" d="M394 396Q394 596 265 596Q227 596 200 580Q162 512 141 425T120 271T132 162T174 86T245 54T312 71Q350 125 372 221T394 396ZM138 -15T88 57T38 228T64 411T147 564T282 666Q476 666 476 413Q476
277 412 155T233 -15Q138 -15 88 57ZM286 845Q337 812 381 812T448 836L464 824Q426 771 368 747Q350 747 304 763T240 780Q206 780 184 756L167 768Q205 820 286 845Z" />
<glyph unicode="&#xd6;" glyph-name="Odieresis" horiz-adv-x="514" d="M394 396Q394 596 265 596Q227 596 200 580Q162 512 141 425T120 271T132 162T174 86T245 54T312 71Q350 125 372 221T394 396ZM138 -15T88 57T38 228T64 411T147 564T282 666Q476 666 476
413Q476 277 412 155T233 -15Q138 -15 88 57ZM452 803Q443 788 425 766T392 735Q368 752 344 803Q351 816 370 833T403 858Q428 842 452 803ZM287 803Q278 788 260 766T227 735Q203 752 179 803Q186 816 205 833T238 858Q263 842 287 803Z" />
<glyph unicode="&#xd7;" glyph-name="multiply" horiz-adv-x="550" d="M427 425L465 390L311 239Q348 201 405 150T475 89L447 50H436L278 205L120 50H109L81 89Q211 205 244 239L91 390L129 425L137 424Q180 376 278 273L419 424L427 425Z" />
<glyph unicode="&#xd8;" glyph-name="Oslash" horiz-adv-x="514" d="M38 238Q38 430 148 564Q204 634 282 666Q320 666 353 655L378 732Q401 734 416 739L420 736Q417 729 382 642Q476 589 476 413Q476 277 412 155T233 -15Q182 -15 140 9L105 -87H100Q84 -78
74 -63L114 28Q38 97 38 238ZM394 396Q394 510 350 559L170 89Q202 54 243 54T312 71Q350 125 372 221T394 396ZM162 512T141 425T120 256T150 118L327 579Q301 596 264 596T200 580Q162 512 141 425Z" />
<glyph unicode="&#xd9;" glyph-name="Ugrave" horiz-adv-x="594" d="M96 205Q96 205 107 457Q107 566 99 620Q46 625 7 639L8 651Q128 651 202 664L208 659Q193 594 183 482T172 305T172 223T175 178T184 135T201 101Q220 67 268 59Q343 109 404 208Q413 340 413
469T402 649Q458 652 504 664L510 659Q494 587 485 447T475 179T486 0Q430 -3 384 -15L378 -10Q389 42 399 146L396 147Q333 36 243 -15Q160 -7 128 49T96 205ZM322 733L124 808Q124 817 130 835T142 862Q157 867 181 867Q203 836 246 804T331 751L322 733Z" />
<glyph unicode="&#xda;" glyph-name="Uacute" horiz-adv-x="594" d="M96 205Q96 205 107 457Q107 566 99 620Q46 625 7 639L8 651Q128 651 202 664L208 659Q193 594 183 482T172 305T172 223T175 178T184 135T201 101Q220 67 268 59Q343 109 404 208Q413 340 413
469T402 649Q458 652 504 664L510 659Q494 587 485 447T475 179T486 0Q430 -3 384 -15L378 -10Q389 42 399 146L396 147Q333 36 243 -15Q160 -7 128 49T96 205ZM491 808L293 733L284 751Q325 771 368 803T434 867Q458 867 473 862Q479 854 485 836T491 808Z" />
<glyph unicode="&#xdb;" glyph-name="Ucircumflex" horiz-adv-x="594" d="M96 205Q96 205 107 457Q107 566 99 620Q46 625 7 639L8 651Q128 651 202 664L208 659Q193 594 183 482T172 305T172 223T175 178T184 135T201 101Q220 67 268 59Q343 109 404 208Q413
340 413 469T402 649Q458 652 504 664L510 659Q494 587 485 447T475 179T486 0Q430 -3 384 -15L378 -10Q389 42 399 146L396 147Q333 36 243 -15Q160 -7 128 49T96 205ZM300 797L177 718L166 734Q262 806 308 885H330Q363 796 440 732L425 720L300 797Z" />
<glyph unicode="&#xdc;" glyph-name="Udieresis" horiz-adv-x="594" d="M96 205Q96 205 107 457Q107 566 99 620Q46 625 7 639L8 651Q128 651 202 664L208 659Q193 594 183 482T172 305T172 223T175 178T184 135T201 101Q220 67 268 59Q343 109 404 208Q413 340
413 469T402 649Q458 652 504 664L510 659Q494 587 485 447T475 179T486 0Q430 -3 384 -15L378 -10Q389 42 399 146L396 147Q333 36 243 -15Q160 -7 128 49T96 205ZM446 803Q437 788 419 766T386 735Q362 752 338 803Q345 816 364 833T397 858Q422 842 446 803ZM281
803Q272 788 254 766T221 735Q197 752 173 803Q180 816 199 833T232 858Q257 842 281 803Z" />
<glyph unicode="&#xdd;" glyph-name="Yacute" horiz-adv-x="489" d="M285 314Q283 269 283 160T294 0Q238 -3 192 -15L186 -10Q207 80 217 294Q205 322 161 419Q84 582 59 622Q-2 628 -37 642L-36 654Q-21 654 -6 654Q95 654 162 666Q189 548 273 352L323 435Q387
544 387 614Q387 633 380 648L384 653Q445 655 488 667Q478 615 442 547T380 442Q317 353 285 314ZM472 808L274 733L265 751Q306 771 349 803T415 867Q439 867 454 862Q460 854 466 836T472 808Z" />
<glyph unicode="&#xde;" glyph-name="Thorn" horiz-adv-x="455" d="M272 521Q355 521 398 488T441 368T375 226T209 171L212 201Q357 201 357 342T255 484Q219 484 184 473Q173 340 173 196T184 0Q128 -3 82 -15L76 -10Q90 49 100 190T111 448T103 620Q45 625
7 639L8 651Q128 651 202 664L208 659Q196 606 188 518Q232 521 272 521Z" />
<glyph unicode="&#xdf;" glyph-name="germandbls" horiz-adv-x="417" d="M421 176Q421 118 380 65T281 -15Q237 5 217 5T191 2L183 15Q221 45 240 85Q286 52 327 45Q344 57 354 80T365 124T338 181T278 251T218 326T190 393V402Q308 473 308 566Q308 649 221 649Q194
649 182 643Q150 578 150 482V255Q150 35 158 0Q91 -78 83 -202L65 -200Q63 -187 63 -162T70 -52T78 79L82 235Q83 269 83 319T77 428Q47 431 44 431L42 447Q55 455 78 464Q78 545 121 613T237 711Q299 711 340 687T382 610Q382 573 364 538T324 482T284 443T265
420Q265 385 343 306Q372 276 396 240T421 176Z" />
<glyph unicode="&#xe0;" glyph-name="agrave" horiz-adv-x="486" d="M124 695Q132 697 142 697T162 696Q199 629 301 560L291 543L101 642Q102 651 109 669T124 695ZM48 143Q48 251 95 349T230 485Q280 485 334 450Q350 489 370 517L384 513Q352 428 352 234Q352
117 360 70Q390 96 419 148T463 247L477 244Q458 167 421 95T333 -15Q303 -4 293 31T283 167Q288 208 297 241L287 242Q269 164 229 92T132 -15Q90 -8 69 40T48 143ZM119 174Q119 141 127 108T156 67Q205 102 248 211T291 388Q256 423 205 423Q178 423 164 409Q119
315 119 174Z" />
<glyph unicode="&#xe1;" glyph-name="aacute" horiz-adv-x="486" d="M48 143Q48 251 95 349T230 485Q280 485 334 450Q350 489 370 517L384 513Q352 428 352 234Q352 117 360 70Q390 96 419 148T463 247L477 244Q458 167 421 95T333 -15Q303 -4 293 31T283 167Q288
208 297 241L287 242Q269 164 229 92T132 -15Q90 -8 69 40T48 143ZM119 174Q119 141 127 108T156 67Q205 102 248 211T291 388Q256 423 205 423Q178 423 164 409Q119 315 119 174ZM342 696Q352 697 362 697T380 695Q387 688 394 670T403 642L213 543L203 560Q305
629 342 696Z" />
<glyph unicode="&#xe2;" glyph-name="acircumflex" horiz-adv-x="486" d="M48 143Q48 251 95 349T230 485Q280 485 334 450Q350 489 370 517L384 513Q352 428 352 234Q352 117 360 70Q390 96 419 148T463 247L477 244Q458 167 421 95T333 -15Q303 -4 293 31T283
167Q288 208 297 241L287 242Q269 164 229 92T132 -15Q90 -8 69 40T48 143ZM119 174Q119 141 127 108T156 67Q205 102 248 211T291 388Q256 423 205 423Q178 423 164 409Q119 315 119 174ZM256 617L147 538L136 554Q223 627 264 705H286Q305 652 325 619T382 552L367
540L256 617Z" />
<glyph unicode="&#xe3;" glyph-name="atilde" horiz-adv-x="486" d="M216 667Q267 634 311 634T378 658L394 646Q356 593 298 569Q280 569 234 585T170 602Q136 602 114 578L97 590Q135 642 216 667ZM48 143Q48 251 95 349T230 485Q280 485 334 450Q350 489 370
517L384 513Q352 428 352 234Q352 117 360 70Q390 96 419 148T463 247L477 244Q458 167 421 95T333 -15Q303 -4 293 31T283 167Q288 208 297 241L287 242Q269 164 229 92T132 -15Q90 -8 69 40T48 143ZM119 174Q119 141 127 108T156 67Q205 102 248 211T291 388Q256
423 205 423Q178 423 164 409Q119 315 119 174Z" />
<glyph unicode="&#xe4;" glyph-name="adieresis" horiz-adv-x="486" d="M48 143Q48 251 95 349T230 485Q280 485 334 450Q350 489 370 517L384 513Q352 428 352 234Q352 117 360 70Q390 96 419 148T463 247L477 244Q458 167 421 95T333 -15Q303 -4 293 31T283
167Q288 208 297 241L287 242Q269 164 229 92T132 -15Q90 -8 69 40T48 143ZM119 174Q119 141 127 108T156 67Q205 102 248 211T291 388Q256 423 205 423Q178 423 164 409Q119 315 119 174ZM382 620Q373 605 355 583T322 552Q298 569 274 620Q281 633 300 650T333
675Q358 659 382 620ZM217 620Q208 605 190 583T157 552Q133 569 109 620Q116 633 135 650T168 675Q193 659 217 620Z" />
<glyph unicode="&#xe5;" glyph-name="aring" horiz-adv-x="486" d="M48 143Q48 251 95 349T230 485Q280 485 334 450Q350 489 370 517L384 513Q352 428 352 234Q352 117 360 70Q390 96 419 148T463 247L477 244Q458 167 421 95T333 -15Q303 -4 293 31T283 167Q288
208 297 241L287 242Q269 164 229 92T132 -15Q90 -8 69 40T48 143ZM119 174Q119 141 127 108T156 67Q205 102 248 211T291 388Q256 423 205 423Q178 423 164 409Q119 315 119 174ZM295 644T281 657T246 671T213 662Q196 642 196 609Q196 560 247 560Q268 560 278
569Q295 589 295 616ZM197 525T172 541T146 594T179 661T262 706Q345 706 345 645Q345 601 314 570T235 525Q197 525 172 541Z" />
<glyph unicode="&#xe6;" glyph-name="ae" horiz-adv-x="564" d="M48 6T48 117T111 333T272 469Q311 465 352 436Q381 465 417 483L423 481Q452 402 502 322L570 337L574 324Q434 268 324 172Q336 87 394 61Q469 115 506 214L529 205Q507 139 465 79T369 -15Q276
7 256 112Q234 78 192 39T114 -15Q48 6 48 117ZM250 177Q250 289 307 380Q270 412 231 412Q211 412 197 402Q163 347 143 275T122 140T148 64Q211 93 251 148Q250 157 250 177ZM376 418Q348 387 334 335T320 257T320 226L321 204Q373 252 431 289Q398 355 376 418Z"
/>
<glyph unicode="&#xe7;" glyph-name="ccedilla" horiz-adv-x="362" d="M47 157Q47 258 88 347T208 485Q257 467 293 467T342 471L348 456Q307 422 307 313H293Q282 353 279 390L252 401Q205 420 169 425Q118 328 118 209T190 61Q265 115 302 214L325 205Q303 139
261 79T165 -15Q108 -4 78 44T47 157ZM257 -119Q257 -126 256 -133Q216 -195 155 -215Q111 -215 71 -194Q85 -170 91 -155L95 -153Q124 -178 160 -178Q178 -178 186 -173Q199 -158 199 -135T179 -105T122 -97L116 -93L177 14L206 16L172 -46L175 -49Q216 -49 236
-69T257 -119Z" />
<glyph unicode="&#xe8;" glyph-name="egrave" horiz-adv-x="373" d="M383 275Q260 275 118 236Q118 95 191 61Q266 115 303 214L326 205Q304 139 262 79T166 -15Q47 13 47 177Q47 297 110 385T283 480L294 473Q298 394 314 299L383 289V275ZM118 257Q173 278 237
291Q231 361 231 441Q179 427 149 373T118 257ZM81 695Q89 697 99 697T119 696Q156 629 258 560L248 543L58 642Q59 651 66 669T81 695Z" />
<glyph unicode="&#xe9;" glyph-name="eacute" horiz-adv-x="373" d="M383 275Q260 275 118 236Q118 95 191 61Q266 115 303 214L326 205Q304 139 262 79T166 -15Q47 13 47 177Q47 297 110 385T283 480L294 473Q298 394 314 299L383 289V275ZM118 257Q173 278 237
291Q231 361 231 441Q179 427 149 373T118 257ZM315 696Q325 697 335 697T353 695Q360 688 367 670T376 642L186 543L176 560Q278 629 315 696Z" />
<glyph unicode="&#xea;" glyph-name="ecircumflex" horiz-adv-x="373" d="M383 275Q260 275 118 236Q118 95 191 61Q266 115 303 214L326 205Q304 139 262 79T166 -15Q47 13 47 177Q47 297 110 385T283 480L294 473Q298 394 314 299L383 289V275ZM118 257Q173
278 237 291Q231 361 231 441Q179 427 149 373T118 257ZM208 617L99 538L88 554Q175 627 216 705H238Q257 652 277 619T334 552L319 540L208 617Z" />
<glyph unicode="&#xeb;" glyph-name="edieresis" horiz-adv-x="373" d="M383 275Q260 275 118 236Q118 95 191 61Q266 115 303 214L326 205Q304 139 262 79T166 -15Q47 13 47 177Q47 297 110 385T283 480L294 473Q298 394 314 299L383 289V275ZM118 257Q173 278
237 291Q231 361 231 441Q179 427 149 373T118 257ZM348 620Q339 605 321 583T288 552Q264 569 240 620Q247 633 266 650T299 675Q324 659 348 620ZM183 620Q174 605 156 583T123 552Q99 569 75 620Q82 633 101 650T134 675Q159 659 183 620Z" />
<glyph unicode="&#xec;" glyph-name="igrave" horiz-adv-x="299" d="M202 472Q168 382 168 86V70Q198 96 227 148T271 247L285 244Q266 166 230 95T143 -15Q95 1 95 76Q95 118 100 220T105 368T103 442Q65 445 25 456V470Q121 470 195 485L202 472ZM43 695Q51
697 61 697T81 696Q118 629 220 560L210 543L20 642Q21 651 28 669T43 695Z" />
<glyph unicode="&#xed;" glyph-name="iacute" horiz-adv-x="299" d="M202 472Q168 382 168 86V70Q198 96 227 148T271 247L285 244Q266 166 230 95T143 -15Q95 1 95 76Q95 118 100 220T105 368T103 442Q65 445 25 456V470Q121 470 195 485L202 472ZM223 696Q233
697 243 697T261 695Q268 688 275 670T284 642L94 543L84 560Q186 629 223 696Z" />
<glyph unicode="&#xee;" glyph-name="icircumflex" horiz-adv-x="299" d="M202 472Q168 382 168 86V70Q198 96 227 148T271 247L285 244Q266 166 230 95T143 -15Q95 1 95 76Q95 118 100 220T105 368T103 442Q65 445 25 456V470Q121 470 195 485L202 472ZM140 617L31
538L20 554Q107 627 148 705H170Q189 652 209 619T266 552L251 540L140 617Z" />
<glyph unicode="&#xef;" glyph-name="idieresis" horiz-adv-x="299" d="M202 472Q168 382 168 86V70Q198 96 227 148T271 247L285 244Q266 166 230 95T143 -15Q95 1 95 76Q95 118 100 220T105 368T103 442Q65 445 25 456V470Q121 470 195 485L202 472ZM280 620Q271
605 253 583T220 552Q196 569 172 620Q179 633 198 650T231 675Q256 659 280 620ZM115 620Q106 605 88 583T55 552Q31 569 7 620Q14 633 33 650T66 675Q91 659 115 620Z" />
<glyph unicode="&#xf0;" glyph-name="eth" horiz-adv-x="407" d="M360 269Q360 178 314 97T185 -15Q116 -15 82 31T47 155T92 311T221 419Q262 406 280 366H284Q271 454 219 540L205 530Q140 485 110 455L105 456L95 486L204 562Q151 643 73 696L83 711Q174 666
241 589L277 615Q322 648 345 669Q353 660 368 649L369 645L258 568Q360 436 360 269ZM282 311T262 339T211 368T161 358Q118 278 118 163Q118 115 136 80T197 45Q223 45 243 55Q264 94 276 156T288 269Q282 311 262 339Z" />
<glyph unicode="&#xf1;" glyph-name="ntilde" horiz-adv-x="502" d="M402 347Q402 296 390 209T377 68Q407 94 436 147T481 247L495 244Q476 166 440 95T353 -15Q305 2 305 76Q305 107 318 197T331 319Q331 393 294 406Q245 371 202 261T159 81Q159 42 167 0Q138
-2 84 -15L78 -10Q98 59 98 214T92 442Q54 445 14 456V470Q103 470 177 485L184 472Q167 428 167 303Q162 262 153 229L163 228Q181 305 222 378T320 485Q402 470 402 347ZM244 667Q295 634 339 634T406 658L422 646Q384 593 326 569Q308 569 262 585T198 602Q164
602 142 578L125 590Q163 642 244 667Z" />
<glyph unicode="&#xf2;" glyph-name="ograve" horiz-adv-x="407" d="M243 57Q288 155 288 290T207 425Q180 425 161 413Q118 319 118 184Q118 128 136 87T197 45Q224 45 243 57ZM116 -15T82 37T47 181T92 360T221 485Q360 485 360 300Q360 199 314 109T185 -15Q116
-15 82 37ZM89 695Q97 697 107 697T127 696Q164 629 266 560L256 543L66 642Q67 651 74 669T89 695Z" />
<glyph unicode="&#xf3;" glyph-name="oacute" horiz-adv-x="407" d="M243 57Q288 155 288 290T207 425Q180 425 161 413Q118 319 118 184Q118 128 136 87T197 45Q224 45 243 57ZM116 -15T82 37T47 181T92 360T221 485Q360 485 360 300Q360 199 314 109T185 -15Q116
-15 82 37ZM324 696Q334 697 344 697T362 695Q369 688 376 670T385 642L195 543L185 560Q287 629 324 696Z" />
<glyph unicode="&#xf4;" glyph-name="ocircumflex" horiz-adv-x="407" d="M243 57Q288 155 288 290T207 425Q180 425 161 413Q118 319 118 184Q118 128 136 87T197 45Q224 45 243 57ZM116 -15T82 37T47 181T92 360T221 485Q360 485 360 300Q360 199 314 109T185
-15Q116 -15 82 37ZM236 617L127 538L116 554Q203 627 244 705H266Q285 652 305 619T362 552L347 540L236 617Z" />
<glyph unicode="&#xf5;" glyph-name="otilde" horiz-adv-x="407" d="M210 667Q261 634 305 634T372 658L388 646Q350 593 292 569Q274 569 228 585T164 602Q130 602 108 578L91 590Q129 642 210 667ZM243 57Q288 155 288 290T207 425Q180 425 161 413Q118 319
118 184Q118 128 136 87T197 45Q224 45 243 57ZM116 -15T82 37T47 181T92 360T221 485Q360 485 360 300Q360 199 314 109T185 -15Q116 -15 82 37Z" />
<glyph unicode="&#xf6;" glyph-name="odieresis" horiz-adv-x="407" d="M243 57Q288 155 288 290T207 425Q180 425 161 413Q118 319 118 184Q118 128 136 87T197 45Q224 45 243 57ZM116 -15T82 37T47 181T92 360T221 485Q360 485 360 300Q360 199 314 109T185
-15Q116 -15 82 37ZM376 620Q367 605 349 583T316 552Q292 569 268 620Q275 633 294 650T327 675Q352 659 376 620ZM211 620Q202 605 184 583T151 552Q127 569 103 620Q110 633 129 650T162 675Q187 659 211 620Z" />
<glyph unicode="&#xf7;" glyph-name="divide" horiz-adv-x="550" d="M318 402T318 385T304 354T274 339T244 353T229 385T243 416T274 430T304 416ZM318 129T318 112T304 81T274 66T244 80T229 111T243 142T274 157T304 143ZM62 280Q232 271 341 271T490 274L496
268L487 222H61L53 229L62 280Z" />
<glyph unicode="&#xf8;" glyph-name="oslash" horiz-adv-x="407" d="M337 552Q318 514 301 463Q360 423 360 300Q360 199 314 109T185 -15Q150 -15 124 -1L96 -77H91Q76 -69 68 -54L99 16Q47 65 47 168T92 360T221 485Q250 485 277 475Q285 498 299 548Q318 550
333 555L337 552ZM288 286Q288 349 270 384L149 66Q168 45 196 45T243 57Q288 155 288 286ZM118 184Q118 129 132 96L253 407Q235 425 208 425T161 413Q118 319 118 184Z" />
<glyph unicode="&#xf9;" glyph-name="ugrave" horiz-adv-x="542" d="M189 413T174 312T159 144T196 64Q245 99 288 209T331 389Q331 428 323 470Q352 472 406 485L412 480Q392 411 392 264T400 70Q430 96 459 148T503 247L517 244Q498 167 461 95T373 -15Q343
-4 333 31T323 167Q328 208 337 241L327 242Q309 165 268 92T170 -15Q88 0 88 123Q88 170 101 263T115 389T112 442Q74 445 34 456V470Q123 470 197 485L204 472Q189 413 174 312ZM125 695Q133 697 143 697T163 696Q200 629 302 560L292 543L102 642Q103 651 110
669T125 695Z" />
<glyph unicode="&#xfa;" glyph-name="uacute" horiz-adv-x="524" d="M189 413T174 312T159 144T196 64Q245 99 288 209T331 389Q331 428 323 470Q352 472 406 485L412 480Q392 411 392 264T400 70Q430 96 459 148T503 247L517 244Q498 167 461 95T373 -15Q343
-4 333 31T323 167Q328 208 337 241L327 242Q309 165 268 92T170 -15Q88 0 88 123Q88 170 101 263T115 389T112 442Q74 445 34 456V470Q123 470 197 485L204 472Q189 413 174 312ZM376 696Q386 697 396 697T414 695Q421 688 428 670T437 642L247 543L237 560Q339
629 376 696Z" />
<glyph unicode="&#xfb;" glyph-name="ucircumflex" horiz-adv-x="524" d="M189 413T174 312T159 144T196 64Q245 99 288 209T331 389Q331 428 323 470Q352 472 406 485L412 480Q392 411 392 264T400 70Q430 96 459 148T503 247L517 244Q498 167 461 95T373 -15Q343
-4 333 31T323 167Q328 208 337 241L327 242Q309 165 268 92T170 -15Q88 0 88 123Q88 170 101 263T115 389T112 442Q74 445 34 456V470Q123 470 197 485L204 472Q189 413 174 312ZM263 617L154 538L143 554Q230 627 271 705H293Q312 652 332 619T389 552L374 540L263
617Z" />
<glyph unicode="&#xfc;" glyph-name="udieresis" horiz-adv-x="524" d="M189 413T174 312T159 144T196 64Q245 99 288 209T331 389Q331 428 323 470Q352 472 406 485L412 480Q392 411 392 264T400 70Q430 96 459 148T503 247L517 244Q498 167 461 95T373 -15Q343
-4 333 31T323 167Q328 208 337 241L327 242Q309 165 268 92T170 -15Q88 0 88 123Q88 170 101 263T115 389T112 442Q74 445 34 456V470Q123 470 197 485L204 472Q189 413 174 312ZM402 620Q393 605 375 583T342 552Q318 569 294 620Q301 633 320 650T353 675Q378
659 402 620ZM237 620Q228 605 210 583T177 552Q153 569 129 620Q136 633 155 650T188 675Q213 659 237 620Z" />
<glyph unicode="&#xfd;" glyph-name="yacute" horiz-adv-x="471" d="M81 123Q81 170 94 263T108 389T105 442Q67 445 27 456V470Q116 470 190 485L197 472Q182 413 167 312T152 144T189 64Q238 99 281 209T324 389Q324 428 316 470Q345 472 399 485L405 480Q385
398 385 257T394 43T435 -115Q403 -150 370 -215L339 -200Q206 -136 104 -136Q36 -136 -15 -195L-26 -186Q20 -115 163 -15Q81 0 81 123ZM150 -74T241 -99T361 -125T399 -117Q362 -63 339 4T316 133V167Q321 208 330 241L320 242Q272 46 117 -74Q150 -74 241 -99ZM368
696Q378 697 388 697T406 695Q413 688 420 670T429 642L239 543L229 560Q331 629 368 696Z" />
<glyph unicode="&#xfe;" glyph-name="thorn" horiz-adv-x="453" d="M104 79L112 442Q112 590 108 628Q70 631 30 642V656Q137 656 227 703L235 690Q203 661 194 620T180 462L175 303Q170 262 161 229L171 228Q189 305 230 378T328 485Q410 470 410 347Q410 238
365 139T236 -15L213 -7Q178 5 161 7V-15Q161 -93 168 -143L172 -170Q115 -186 72 -215L62 -202Q98 -169 100 -98L103 18Q79 18 60 6L51 17Q68 41 104 79ZM161 79Q226 52 253 52T285 56Q312 105 325 177T339 321T302 406Q254 370 214 272T161 93V79Z" />
<glyph unicode="&#xff;" glyph-name="ydieresis" horiz-adv-x="471" d="M81 123Q81 170 94 263T108 389T105 442Q67 445 27 456V470Q116 470 190 485L197 472Q182 413 167 312T152 144T189 64Q238 99 281 209T324 389Q324 428 316 470Q345 472 399 485L405 480Q385
398 385 257T394 43T435 -115Q403 -150 370 -215L339 -200Q206 -136 104 -136Q36 -136 -15 -195L-26 -186Q20 -115 163 -15Q81 0 81 123ZM150 -74T241 -99T361 -125T399 -117Q362 -63 339 4T316 133V167Q321 208 330 241L320 242Q272 46 117 -74Q150 -74 241 -99ZM395
620Q386 605 368 583T335 552Q311 569 287 620Q294 633 313 650T346 675Q371 659 395 620ZM230 620Q221 605 203 583T170 552Q146 569 122 620Q129 633 148 650T181 675Q206 659 230 620Z" />
<glyph unicode="&#x2013;" glyph-name="endash" horiz-adv-x="435" d="M30 296Q155 287 272 287T428 290L434 284L405 245H9L1 252L30 296Z" />
<glyph unicode="&#x2014;" glyph-name="emdash" horiz-adv-x="635" d="M30 296Q200 287 394 287T628 290L634 284L605 245H9L1 252L30 296Z" />
<glyph unicode="&#x2018;" glyph-name="quoteleft" horiz-adv-x="205" d="M46 474Q55 527 94 581T182 666L190 656Q128 594 118 527Q143 502 155 474Q146 460 127 443T94 419Q83 426 68 443T46 474Z" />
<glyph unicode="&#x2019;" glyph-name="quoteright" horiz-adv-x="205" d="M159 611Q150 558 111 504T23 419L15 429Q76 490 87 558Q62 583 50 611Q59 625 78 642T111 666Q122 659 137 642T159 611Z" />
<glyph unicode="&#x201a;" glyph-name="quotesinglbase" horiz-adv-x="208" d="M159 53Q150 4 111 -47T23 -127L15 -117Q77 -61 87 0Q62 25 50 53Q59 67 78 84T111 108Q122 101 137 84T159 53Z" />
<glyph unicode="&#x201c;" glyph-name="quotedblleft" horiz-adv-x="355" d="M46 474Q55 527 94 581T182 666L190 656Q128 594 118 527Q143 502 155 474Q146 460 127 443T94 419Q83 426 68 443T46 474ZM196 474Q205 527 244 581T332 666L340 656Q278 594 268 527Q293
502 305 474Q296 460 277 443T244 419Q233 426 218 443T196 474Z" />
<glyph unicode="&#x201d;" glyph-name="quotedblright" horiz-adv-x="355" d="M309 611Q300 558 261 504T173 419L165 429Q226 490 237 558Q212 583 200 611Q209 625 228 642T261 666Q272 659 287 642T309 611ZM159 611Q150 558 111 504T23 419L15 429Q76 490
87 558Q62 583 50 611Q59 625 78 642T111 666Q122 659 137 642T159 611Z" />
<glyph unicode="&#x201e;" glyph-name="quotedblbase" horiz-adv-x="355" d="M159 53Q150 4 111 -47T23 -127L15 -117Q77 -61 87 0Q62 25 50 53Q59 67 78 84T111 108Q122 101 137 84T159 53ZM309 53Q300 4 261 -47T173 -127L165 -117Q227 -61 237 0Q212 25 200
53Q209 67 228 84T261 108Q272 101 287 84T309 53Z" />
<glyph unicode="&#x2022;" glyph-name="bullet" horiz-adv-x="337" d="M291 288L289 274Q205 211 161 141H143Q116 211 46 273L48 287Q93 316 121 342T175 407H193Q210 368 232 343T291 288Z" />
<glyph unicode="&#x2039;" glyph-name="guilsinglleft" horiz-adv-x="283" d="M137 283L226 125L204 111Q126 216 46 269L48 289Q150 341 244 439L262 426L137 283Z" />
<glyph unicode="&#x203a;" glyph-name="guilsinglright" horiz-adv-x="285" d="M21 125L148 283L61 426L79 439Q150 340 239 289L237 269Q148 220 39 111L21 125Z" />
</font>
</defs>
</svg>
